<svg aria-hidden="true" style="position: absolute; width: 0; height: 0; overflow: hidden;" version="1.1" xmlns="http://www.w3.org/2000/svg" xmlns:xlink="http://www.w3.org/1999/xlink">
<defs>
<symbol id="icon-writening" viewBox="0 0 47 32">
<path fill="#fff" style="fill: var(--color1, #fff)" d="M36.958 3.925h-17.656c-0.344 0-0.622 0.278-0.622 0.621v15.857c0 0.343 0.279 0.62 0.622 0.62h17.656c0.344 0 0.622-0.278 0.622-0.62v-15.857c0-0.343-0.279-0.621-0.622-0.621z"></path>
<path fill="#000" style="fill: var(--color2, #000)" opacity="0.2" d="M37.581 13.291v7.13c0 0.16-0.063 0.313-0.177 0.426s-0.267 0.176-0.427 0.177h-17.693c-0.16 0-0.314-0.064-0.427-0.176s-0.177-0.266-0.177-0.426v-1.412h0.038v0.952c0 0.090 0.018 0.18 0.053 0.264s0.086 0.16 0.15 0.223c0.064 0.064 0.14 0.115 0.224 0.149s0.174 0.052 0.265 0.052h17.093c0.091 0 0.181-0.018 0.264-0.052s0.16-0.085 0.224-0.149c0.064-0.064 0.115-0.14 0.15-0.223s0.053-0.173 0.053-0.264v-5.612c0-0.127-0.051-0.249-0.141-0.339s-0.212-0.14-0.34-0.14h-18.032v-0.578h18.901z"></path>
<path fill="#263238" style="fill: var(--color3, #263238)" d="M35.935 15.321v-0.817c0-0.040-0.008-0.079-0.023-0.116s-0.038-0.070-0.066-0.098c-0.028-0.028-0.062-0.050-0.098-0.065s-0.076-0.023-0.116-0.023h-15.003c-0.080 0-0.157 0.032-0.214 0.088s-0.089 0.133-0.089 0.214v0.817c0 0.080-0.032 0.157-0.089 0.214s-0.134 0.088-0.214 0.088c-0.081 0-0.158 0.032-0.215 0.089s-0.089 0.134-0.089 0.214v1.612c0 0.372 0.148 0.728 0.412 0.991s0.621 0.41 0.994 0.41c0.060 0 0.117 0.024 0.16 0.066s0.066 0.099 0.066 0.159v0.483c0 0.178 0.071 0.349 0.197 0.475s0.298 0.197 0.477 0.197h12.212c0.179 0 0.35-0.071 0.477-0.197s0.197-0.297 0.197-0.475v-0.483c0-0.060 0.024-0.117 0.066-0.159s0.1-0.066 0.16-0.066c0.185 0 0.367-0.036 0.538-0.107s0.325-0.174 0.456-0.304c0.13-0.13 0.234-0.285 0.305-0.455s0.107-0.352 0.107-0.536v-1.612c0-0.080-0.032-0.157-0.089-0.214s-0.134-0.089-0.214-0.089c-0.081 0-0.158-0.032-0.215-0.088s-0.089-0.133-0.089-0.214z"></path>
<path fill="#fff" style="fill: var(--color1, #fff)" d="M21.475 14.665h-0.525c-0.064 0-0.126 0.025-0.171 0.071s-0.071 0.107-0.071 0.171v0.134c0 0.278 0.226 0.631 0.505 0.631s0.505-0.353 0.505-0.631v-0.134c-0-0.064-0.026-0.125-0.071-0.171s-0.107-0.071-0.172-0.071z"></path>
<path fill="#fff" style="fill: var(--color1, #fff)" d="M22.73 14.665h-0.525c-0.064 0-0.126 0.025-0.172 0.071s-0.071 0.107-0.071 0.171v0.134c0 0.278 0.226 0.631 0.505 0.631s0.505-0.353 0.505-0.631v-0.134c0-0.064-0.025-0.125-0.071-0.171s-0.107-0.071-0.171-0.071z"></path>
<path fill="#fff" style="fill: var(--color1, #fff)" d="M23.991 14.665h-0.525c-0.064 0-0.126 0.025-0.171 0.071s-0.071 0.107-0.071 0.171v0.134c0 0.278 0.226 0.631 0.504 0.631s0.505-0.353 0.505-0.631v-0.134c0-0.064-0.025-0.125-0.071-0.171s-0.107-0.071-0.171-0.071z"></path>
<path fill="#fff" style="fill: var(--color1, #fff)" d="M25.248 14.665h-0.525c-0.064 0-0.126 0.025-0.171 0.071s-0.071 0.107-0.071 0.171v0.134c0 0.278 0.226 0.631 0.505 0.631s0.504-0.353 0.504-0.631v-0.134c0-0.032-0.006-0.063-0.018-0.092s-0.030-0.056-0.052-0.078-0.049-0.040-0.079-0.052c-0.029-0.012-0.061-0.018-0.093-0.018z"></path>
<path fill="#fff" style="fill: var(--color1, #fff)" d="M26.506 14.665h-0.525c-0.064 0-0.126 0.025-0.171 0.071s-0.071 0.107-0.071 0.171v0.134c0 0.278 0.226 0.631 0.505 0.631s0.505-0.353 0.505-0.631v-0.134c-0-0.064-0.026-0.125-0.071-0.171s-0.107-0.071-0.172-0.071z"></path>
<path fill="#fff" style="fill: var(--color1, #fff)" d="M27.764 14.665h-0.525c-0.064 0-0.126 0.025-0.172 0.071s-0.071 0.107-0.071 0.171v0.134c0 0.278 0.226 0.631 0.505 0.631s0.505-0.353 0.505-0.631v-0.134c0-0.064-0.026-0.125-0.071-0.171s-0.107-0.071-0.171-0.071z"></path>
<path fill="#fff" style="fill: var(--color1, #fff)" d="M29.022 14.665h-0.525c-0.064 0-0.126 0.025-0.171 0.071s-0.071 0.107-0.071 0.171v0.134c0 0.278 0.226 0.631 0.504 0.631s0.505-0.353 0.505-0.631v-0.134c0-0.064-0.025-0.125-0.071-0.171s-0.107-0.071-0.171-0.071z"></path>
<path fill="#fff" style="fill: var(--color1, #fff)" d="M30.279 14.665h-0.525c-0.064 0-0.126 0.025-0.171 0.071s-0.071 0.107-0.071 0.171v0.134c0 0.278 0.226 0.631 0.505 0.631s0.504-0.353 0.504-0.631v-0.134c0-0.064-0.025-0.125-0.071-0.171s-0.107-0.071-0.171-0.071z"></path>
<path fill="#fff" style="fill: var(--color1, #fff)" d="M31.537 14.665h-0.522c-0.032 0-0.063 0.006-0.093 0.018s-0.056 0.030-0.079 0.052c-0.022 0.022-0.040 0.049-0.052 0.078s-0.018 0.061-0.018 0.092v0.134c0 0.278 0.226 0.631 0.505 0.631s0.505-0.353 0.505-0.631v-0.134c0-0.032-0.007-0.063-0.019-0.093s-0.031-0.056-0.053-0.079c-0.023-0.022-0.050-0.040-0.080-0.052s-0.062-0.018-0.094-0.017z"></path>
<path fill="#fff" style="fill: var(--color1, #fff)" d="M32.795 14.665h-0.525c-0.064 0-0.126 0.025-0.172 0.071s-0.071 0.107-0.071 0.171v0.134c0 0.278 0.226 0.631 0.505 0.631s0.505-0.353 0.505-0.631v-0.134c0-0.064-0.026-0.125-0.071-0.171s-0.107-0.071-0.171-0.071z"></path>
<path fill="#fff" style="fill: var(--color1, #fff)" d="M34.053 14.665h-0.525c-0.064 0-0.126 0.025-0.171 0.071s-0.071 0.107-0.071 0.171v0.134c0 0.278 0.226 0.631 0.504 0.631s0.505-0.353 0.505-0.631v-0.134c0-0.064-0.026-0.125-0.071-0.171s-0.107-0.071-0.171-0.071z"></path>
<path fill="#fff" style="fill: var(--color1, #fff)" d="M35.31 14.665h-0.525c-0.064 0-0.126 0.025-0.171 0.071s-0.071 0.107-0.071 0.171v0.134c0 0.277 0.224 0.63 0.508 0.63s0.504-0.353 0.504-0.631v-0.134c-0-0.032-0.007-0.063-0.019-0.093s-0.031-0.056-0.053-0.078c-0.023-0.022-0.050-0.040-0.079-0.052s-0.061-0.018-0.093-0.017z"></path>
<path fill="#fff" style="fill: var(--color1, #fff)" d="M21.475 17.322h-0.525c-0.064 0-0.126 0.025-0.171 0.071s-0.071 0.107-0.071 0.171v0.134c0 0.278 0.226 0.631 0.505 0.631s0.505-0.353 0.505-0.631v-0.134c-0-0.064-0.026-0.125-0.071-0.171s-0.107-0.071-0.172-0.071z"></path>
<path fill="#fff" style="fill: var(--color1, #fff)" d="M22.73 17.322h-0.525c-0.064 0-0.126 0.025-0.172 0.071s-0.071 0.107-0.071 0.171v0.134c0 0.278 0.226 0.631 0.505 0.631s0.505-0.353 0.505-0.631v-0.134c0-0.064-0.025-0.125-0.071-0.171s-0.107-0.071-0.171-0.071z"></path>
<path fill="#fff" style="fill: var(--color1, #fff)" d="M23.991 17.322h-0.525c-0.064 0-0.126 0.025-0.171 0.071s-0.071 0.107-0.071 0.171v0.134c0 0.278 0.226 0.631 0.504 0.631s0.505-0.353 0.505-0.631v-0.134c0-0.064-0.025-0.125-0.071-0.171s-0.107-0.071-0.171-0.071z"></path>
<path fill="#fff" style="fill: var(--color1, #fff)" d="M25.248 17.322h-0.525c-0.064 0-0.126 0.025-0.171 0.071s-0.071 0.107-0.071 0.171v0.134c0 0.278 0.226 0.631 0.505 0.631s0.504-0.353 0.504-0.631v-0.134c0-0.032-0.006-0.063-0.018-0.092s-0.030-0.056-0.052-0.078c-0.023-0.022-0.049-0.040-0.079-0.052s-0.061-0.018-0.093-0.018z"></path>
<path fill="#fff" style="fill: var(--color1, #fff)" d="M26.506 17.322h-0.525c-0.064 0-0.126 0.025-0.171 0.071s-0.071 0.107-0.071 0.171v0.134c0 0.278 0.226 0.631 0.505 0.631s0.505-0.353 0.505-0.631v-0.134c-0-0.064-0.026-0.125-0.071-0.171s-0.107-0.071-0.172-0.071z"></path>
<path fill="#fff" style="fill: var(--color1, #fff)" d="M27.764 17.322h-0.525c-0.064 0-0.126 0.025-0.172 0.071s-0.071 0.107-0.071 0.171v0.134c0 0.278 0.226 0.631 0.505 0.631s0.505-0.353 0.505-0.631v-0.134c0-0.064-0.026-0.125-0.071-0.171s-0.107-0.071-0.171-0.071z"></path>
<path fill="#fff" style="fill: var(--color1, #fff)" d="M29.022 17.322h-0.525c-0.064 0-0.126 0.025-0.171 0.071s-0.071 0.107-0.071 0.171v0.134c0 0.278 0.226 0.631 0.504 0.631s0.505-0.353 0.505-0.631v-0.134c0-0.064-0.025-0.125-0.071-0.171s-0.107-0.071-0.171-0.071z"></path>
<path fill="#fff" style="fill: var(--color1, #fff)" d="M30.279 17.322h-0.525c-0.064 0-0.126 0.025-0.171 0.071s-0.071 0.107-0.071 0.171v0.134c0 0.278 0.226 0.631 0.505 0.631s0.504-0.353 0.504-0.631v-0.134c0-0.064-0.025-0.125-0.071-0.171s-0.107-0.071-0.171-0.071z"></path>
<path fill="#fff" style="fill: var(--color1, #fff)" d="M31.537 17.322h-0.522c-0.032 0-0.063 0.006-0.093 0.018s-0.056 0.030-0.079 0.052c-0.022 0.022-0.040 0.049-0.052 0.078s-0.018 0.061-0.018 0.092v0.134c0 0.278 0.226 0.631 0.505 0.631s0.505-0.353 0.505-0.631v-0.134c0-0.032-0.007-0.064-0.019-0.093s-0.031-0.056-0.053-0.079c-0.023-0.022-0.050-0.040-0.080-0.052s-0.062-0.018-0.094-0.018z"></path>
<path fill="#fff" style="fill: var(--color1, #fff)" d="M32.795 17.322h-0.525c-0.064 0-0.126 0.025-0.172 0.071s-0.071 0.107-0.071 0.171v0.134c0 0.278 0.226 0.631 0.505 0.631s0.505-0.353 0.505-0.631v-0.134c0-0.064-0.026-0.125-0.071-0.171s-0.107-0.071-0.171-0.071z"></path>
<path fill="#fff" style="fill: var(--color1, #fff)" d="M34.053 17.322h-0.525c-0.064 0-0.126 0.025-0.171 0.071s-0.071 0.107-0.071 0.171v0.134c0 0.278 0.226 0.631 0.504 0.631s0.505-0.353 0.505-0.631v-0.134c0-0.064-0.026-0.125-0.071-0.171s-0.107-0.071-0.171-0.071z"></path>
<path fill="#fff" style="fill: var(--color1, #fff)" d="M35.31 17.322h-0.525c-0.064 0-0.126 0.025-0.171 0.071s-0.071 0.107-0.071 0.171v0.134c0 0.278 0.226 0.631 0.505 0.631s0.504-0.353 0.504-0.631v-0.134c0-0.064-0.025-0.125-0.071-0.171s-0.107-0.071-0.171-0.071z"></path>
<path fill="#fff" style="fill: var(--color1, #fff)" d="M20.846 16.036h-0.523c-0.064 0-0.126 0.025-0.171 0.071s-0.071 0.107-0.071 0.171v0.134c0 0.277 0.226 0.631 0.505 0.631s0.504-0.353 0.504-0.631v-0.134c0-0.032-0.006-0.063-0.019-0.093s-0.030-0.056-0.053-0.079-0.049-0.040-0.079-0.052c-0.030-0.012-0.061-0.018-0.093-0.018z"></path>
<path fill="#fff" style="fill: var(--color1, #fff)" d="M22.104 16.036h-0.525c-0.064 0-0.126 0.025-0.171 0.071s-0.071 0.107-0.071 0.171v0.134c0 0.277 0.226 0.631 0.505 0.631s0.505-0.353 0.505-0.631v-0.134c-0-0.064-0.026-0.126-0.071-0.171s-0.107-0.071-0.172-0.071z"></path>
<path fill="#fff" style="fill: var(--color1, #fff)" d="M23.362 16.036h-0.525c-0.064 0-0.126 0.025-0.172 0.071s-0.071 0.107-0.071 0.171v0.134c0 0.277 0.227 0.631 0.505 0.631s0.505-0.353 0.505-0.631v-0.134c0-0.064-0.025-0.125-0.071-0.171s-0.107-0.071-0.171-0.071z"></path>
<path fill="#fff" style="fill: var(--color1, #fff)" d="M24.62 16.036h-0.525c-0.064 0-0.126 0.025-0.171 0.071s-0.071 0.107-0.071 0.171v0.134c0 0.277 0.226 0.631 0.504 0.631s0.505-0.353 0.505-0.631v-0.134c0-0.032-0.006-0.063-0.018-0.093s-0.030-0.056-0.052-0.078c-0.023-0.022-0.049-0.040-0.079-0.052s-0.061-0.018-0.093-0.018z"></path>
<path fill="#fff" style="fill: var(--color1, #fff)" d="M25.877 16.036h-0.527c-0.064 0-0.126 0.025-0.171 0.071s-0.071 0.107-0.071 0.171v0.134c0 0.277 0.226 0.631 0.505 0.631s0.504-0.353 0.504-0.631v-0.134c0-0.064-0.025-0.125-0.070-0.17s-0.106-0.071-0.17-0.071z"></path>
<path fill="#fff" style="fill: var(--color1, #fff)" d="M27.135 16.036h-0.525c-0.064 0-0.126 0.025-0.171 0.071s-0.071 0.107-0.071 0.171v0.134c0 0.277 0.226 0.631 0.505 0.631s0.505-0.353 0.505-0.631v-0.134c-0-0.064-0.026-0.126-0.071-0.171s-0.107-0.071-0.172-0.071z"></path>
<path fill="#fff" style="fill: var(--color1, #fff)" d="M28.395 16.036h-0.525c-0.064 0-0.126 0.025-0.171 0.071s-0.071 0.107-0.071 0.171v0.134c0 0.277 0.227 0.631 0.505 0.631s0.505-0.353 0.505-0.631v-0.134c0-0.064-0.025-0.125-0.071-0.171s-0.107-0.071-0.171-0.071z"></path>
<path fill="#fff" style="fill: var(--color1, #fff)" d="M29.651 16.036h-0.525c-0.064 0-0.126 0.025-0.171 0.071s-0.071 0.107-0.071 0.171v0.134c0 0.277 0.226 0.631 0.504 0.631s0.505-0.353 0.505-0.631v-0.134c0-0.064-0.026-0.125-0.071-0.171s-0.107-0.071-0.171-0.071z"></path>
<path fill="#fff" style="fill: var(--color1, #fff)" d="M30.908 16.036h-0.525c-0.064 0-0.126 0.025-0.171 0.071s-0.071 0.107-0.071 0.171v0.134c0 0.277 0.226 0.631 0.505 0.631s0.504-0.353 0.504-0.631v-0.134c0-0.064-0.026-0.125-0.071-0.171s-0.107-0.071-0.171-0.071z"></path>
<path fill="#fff" style="fill: var(--color1, #fff)" d="M32.166 16.036h-0.525c-0.064 0-0.126 0.025-0.171 0.071s-0.071 0.107-0.071 0.171v0.134c0 0.277 0.226 0.631 0.505 0.631s0.505-0.353 0.505-0.631v-0.134c-0-0.064-0.026-0.126-0.071-0.171s-0.107-0.071-0.171-0.071z"></path>
<path fill="#fff" style="fill: var(--color1, #fff)" d="M33.423 16.036h-0.525c-0.064 0-0.126 0.025-0.172 0.071s-0.071 0.107-0.071 0.171v0.134c0 0.277 0.227 0.631 0.505 0.631s0.505-0.353 0.505-0.631v-0.134c0-0.064-0.026-0.125-0.071-0.171s-0.107-0.071-0.171-0.071z"></path>
<path fill="#fff" style="fill: var(--color1, #fff)" d="M34.682 16.036h-0.525c-0.064 0.001-0.124 0.027-0.169 0.072s-0.070 0.106-0.070 0.17v0.134c0 0.277 0.226 0.631 0.504 0.631s0.505-0.353 0.505-0.631v-0.134c0-0.032-0.006-0.064-0.019-0.093s-0.031-0.056-0.053-0.079c-0.023-0.023-0.050-0.040-0.080-0.052s-0.062-0.018-0.094-0.017z"></path>
<path fill="#fff" style="fill: var(--color1, #fff)" d="M35.939 16.036h-0.525c-0.064 0-0.126 0.025-0.171 0.071s-0.071 0.107-0.071 0.171v0.134c0 0.277 0.226 0.631 0.505 0.631s0.504-0.353 0.504-0.631v-0.134c0-0.064-0.026-0.125-0.071-0.171s-0.107-0.071-0.171-0.071z"></path>
<path fill="#fff" style="fill: var(--color1, #fff)" d="M32.934 18.66h-9.607c-0.126 0-0.227 0.101-0.227 0.227v0.688c0 0.125 0.102 0.227 0.227 0.227h9.607c0.126 0 0.227-0.101 0.227-0.227v-0.688c0-0.125-0.102-0.227-0.227-0.227z"></path>
<path fill="#fff" style="fill: var(--color1, #fff)" d="M34.221 18.727h-0.525c-0.064 0-0.126 0.025-0.171 0.071s-0.071 0.107-0.071 0.171v0.134c0 0.278 0.226 0.631 0.505 0.631s0.504-0.353 0.504-0.631v-0.134c0-0.064-0.026-0.125-0.071-0.171s-0.107-0.071-0.171-0.071z"></path>
<path fill="#fff" style="fill: var(--color1, #fff)" d="M22.565 18.727h-0.525c-0.064 0-0.126 0.025-0.171 0.071s-0.071 0.107-0.071 0.171v0.134c0 0.278 0.226 0.631 0.505 0.631s0.505-0.353 0.505-0.631v-0.134c-0-0.064-0.026-0.125-0.071-0.171s-0.107-0.071-0.172-0.071z"></path>
<path fill="#000" style="fill: var(--color2, #000)" opacity="0.2" d="M21.504 15.048c0.025 0 0.051 0.002 0.076 0.007 0-0.005 0-0.010 0-0.015v-0.134c-0-0.028-0.011-0.054-0.031-0.074s-0.046-0.031-0.074-0.031h-0.525c-0.028 0-0.054 0.011-0.074 0.031s-0.031 0.046-0.031 0.074v0.134c0 0.193 0.142 0.435 0.309 0.484-0.052-0.214 0.064-0.476 0.35-0.476z"></path>
<path fill="#000" style="fill: var(--color2, #000)" opacity="0.2" d="M22.79 15.012c0.016-0.001 0.032-0.001 0.048 0v-0.109c-0-0.028-0.011-0.054-0.031-0.074s-0.046-0.031-0.074-0.031h-0.525c-0.028 0-0.055 0.011-0.074 0.031s-0.031 0.046-0.031 0.074v0.134c0 0.212 0.168 0.476 0.354 0.494-0.086-0.219 0.027-0.52 0.333-0.52z"></path>
<path fill="#000" style="fill: var(--color2, #000)" opacity="0.2" d="M24.085 14.994h0.011v-0.088c0-0.028-0.011-0.054-0.031-0.074s-0.046-0.031-0.074-0.031h-0.525c-0.028 0-0.055 0.011-0.074 0.031s-0.031 0.046-0.031 0.074v0.134c0 0.215 0.178 0.494 0.367 0.494 0.009 0.001 0.018 0.001 0.028 0-0.095-0.223 0.015-0.54 0.329-0.54z"></path>
<path fill="#000" style="fill: var(--color2, #000)" opacity="0.2" d="M25.263 14.958c0.029-0.001 0.059 0.001 0.088 0.007v-0.061c0-0.028-0.011-0.054-0.031-0.074s-0.046-0.031-0.074-0.031h-0.525c-0.028 0-0.055 0.011-0.074 0.031s-0.031 0.046-0.031 0.074v0.134c0 0.202 0.156 0.459 0.331 0.494-0.12-0.222-0.016-0.574 0.315-0.574z"></path>
<path fill="#000" style="fill: var(--color2, #000)" opacity="0.2" d="M26.585 14.957h0.027v-0.053c-0-0.028-0.011-0.054-0.031-0.074s-0.046-0.031-0.074-0.031h-0.525c-0.028 0-0.054 0.011-0.074 0.031s-0.031 0.046-0.031 0.074v0.134c0 0.215 0.179 0.494 0.367 0.494 0.010 0.001 0.019 0.001 0.029 0-0.124-0.222-0.020-0.575 0.311-0.575z"></path>
<path fill="#000" style="fill: var(--color2, #000)" opacity="0.2" d="M27.853 14.965h0.016v-0.061c-0-0.028-0.011-0.054-0.031-0.074s-0.046-0.031-0.074-0.031h-0.525c-0.028 0-0.055 0.011-0.074 0.031s-0.031 0.046-0.031 0.074v0.134c0 0.215 0.178 0.494 0.367 0.494 0.012 0.001 0.023 0.001 0.035 0-0.116-0.222-0.011-0.567 0.317-0.567z"></path>
<path fill="#000" style="fill: var(--color2, #000)" opacity="0.2" d="M29.066 14.958c0.020 0 0.040 0.002 0.060 0.004v-0.056c0-0.028-0.011-0.054-0.031-0.074s-0.046-0.031-0.074-0.031h-0.525c-0.028 0-0.054 0.011-0.074 0.031s-0.031 0.046-0.031 0.074v0.134c0 0.212 0.176 0.49 0.363 0.494-0.125-0.222-0.022-0.577 0.311-0.577z"></path>
<path fill="#000" style="fill: var(--color2, #000)" opacity="0.2" d="M30.384 14.976v-0.071c0-0.028-0.011-0.054-0.031-0.074s-0.046-0.031-0.074-0.031h-0.525c-0.028 0-0.054 0.011-0.074 0.031s-0.031 0.046-0.031 0.074v0.134c0 0.215 0.178 0.494 0.367 0.494 0.019-0 0.038-0.003 0.056-0.009-0.102-0.217 0.002-0.539 0.311-0.549z"></path>
<path fill="#000" style="fill: var(--color2, #000)" opacity="0.2" d="M31.539 14.948c0.035-0 0.070 0.004 0.103 0.013v-0.056c-0-0.028-0.011-0.054-0.031-0.074s-0.047-0.031-0.074-0.031h-0.522c-0.028 0-0.054 0.011-0.074 0.031s-0.031 0.046-0.031 0.074v0.134c0 0.199 0.151 0.45 0.324 0.489-0.132-0.221-0.030-0.58 0.305-0.58z"></path>
<path fill="#000" style="fill: var(--color2, #000)" opacity="0.2" d="M32.825 14.948c0.025 0 0.050 0.002 0.075 0.007v-0.049c-0-0.028-0.011-0.054-0.031-0.074s-0.046-0.031-0.074-0.031h-0.525c-0.028 0-0.055 0.011-0.074 0.031s-0.031 0.046-0.031 0.074v0.134c0 0.212 0.17 0.481 0.354 0.494-0.133-0.222-0.031-0.586 0.306-0.586z"></path>
<path fill="#000" style="fill: var(--color2, #000)" opacity="0.2" d="M34.102 14.984c0.018 0 0.037 0.002 0.055 0.004v-0.083c0-0.028-0.011-0.054-0.031-0.074s-0.046-0.031-0.074-0.031h-0.525c-0.014 0-0.027 0.003-0.040 0.008s-0.024 0.013-0.034 0.023c-0.010 0.010-0.017 0.021-0.023 0.034s-0.008 0.026-0.008 0.040v0.134c0 0.212 0.17 0.48 0.354 0.494-0.103-0.223 0.006-0.55 0.325-0.55z"></path>
<path fill="#000" style="fill: var(--color2, #000)" opacity="0.2" d="M35.415 14.968v-0.062c0-0.028-0.011-0.054-0.031-0.074s-0.046-0.031-0.074-0.031h-0.525c-0.028 0-0.054 0.011-0.074 0.031s-0.031 0.046-0.031 0.074v0.134c0 0.215 0.178 0.494 0.367 0.494 0.027-0 0.054-0.006 0.079-0.017-0.101-0.213-0.006-0.525 0.288-0.549z"></path>
<path fill="#000" style="fill: var(--color2, #000)" opacity="0.2" d="M21.54 17.577c0.013-0.001 0.027-0.001 0.040 0v-0.015c-0-0.028-0.011-0.054-0.031-0.074s-0.046-0.031-0.074-0.031h-0.525c-0.028 0-0.054 0.011-0.074 0.031s-0.031 0.046-0.031 0.074v0.134c0 0.215 0.178 0.494 0.367 0.494 0.013-0 0.026-0.002 0.039-0.004-0.159-0.215-0.062-0.609 0.288-0.609z"></path>
<path fill="#000" style="fill: var(--color2, #000)" opacity="0.2" d="M22.772 17.577c0.022 0 0.044 0.002 0.066 0.006v-0.018c-0-0.028-0.011-0.054-0.031-0.074s-0.046-0.031-0.074-0.031h-0.525c-0.028 0-0.055 0.011-0.074 0.031s-0.031 0.046-0.031 0.074v0.134c0 0.215 0.178 0.494 0.367 0.494h0.016c-0.162-0.217-0.067-0.616 0.286-0.616z"></path>
<path fill="#000" style="fill: var(--color2, #000)" opacity="0.2" d="M24.022 17.594c0.024 0 0.047 0.002 0.071 0.006v-0.037c0-0.014-0.003-0.027-0.008-0.040s-0.013-0.024-0.023-0.034-0.021-0.017-0.034-0.023c-0.013-0.005-0.026-0.008-0.040-0.008h-0.525c-0.028 0-0.055 0.011-0.074 0.031s-0.031 0.046-0.031 0.074v0.134c0 0.212 0.175 0.489 0.363 0.494-0.141-0.22-0.042-0.597 0.301-0.597z"></path>
<path fill="#000" style="fill: var(--color2, #000)" opacity="0.2" d="M25.299 17.603c0.018 0 0.036 0.001 0.054 0.003v-0.044c0-0.014-0.003-0.027-0.008-0.040s-0.013-0.024-0.023-0.034-0.021-0.017-0.034-0.023c-0.013-0.005-0.026-0.008-0.040-0.008h-0.525c-0.014 0-0.027 0.003-0.040 0.008s-0.024 0.013-0.034 0.023c-0.010 0.010-0.017 0.021-0.023 0.034s-0.008 0.026-0.008 0.040v0.134c0 0.215 0.178 0.494 0.367 0.494h0.009c-0.136-0.221-0.035-0.588 0.304-0.588z"></path>
<path fill="#000" style="fill: var(--color2, #000)" opacity="0.2" d="M26.531 17.577c0.027 0 0.054 0.003 0.081 0.008v-0.020c-0-0.028-0.011-0.054-0.031-0.074s-0.046-0.031-0.074-0.031h-0.525c-0.028 0-0.054 0.011-0.074 0.031s-0.031 0.046-0.031 0.074v0.134c0 0.215 0.179 0.494 0.367 0.494-0.161-0.216-0.067-0.616 0.287-0.616z"></path>
<path fill="#000" style="fill: var(--color2, #000)" opacity="0.2" d="M27.807 17.585c0.021 0 0.041 0.002 0.062 0.005v-0.027c-0-0.028-0.011-0.054-0.031-0.074s-0.046-0.031-0.074-0.031h-0.525c-0.028 0-0.055 0.011-0.074 0.031s-0.031 0.046-0.031 0.074v0.134c0 0.215 0.178 0.494 0.367 0.494h0.013c-0.153-0.219-0.055-0.606 0.292-0.606z"></path>
<path fill="#000" style="fill: var(--color2, #000)" opacity="0.2" d="M29.112 17.612h0.015v-0.049c0-0.028-0.011-0.054-0.031-0.074s-0.046-0.031-0.074-0.031h-0.525c-0.028 0-0.054 0.011-0.074 0.031s-0.031 0.046-0.031 0.074v0.134c0 0.215 0.178 0.494 0.367 0.494 0.014-0 0.027-0.002 0.041-0.005-0.122-0.22-0.021-0.574 0.311-0.574z"></path>
<path fill="#000" style="fill: var(--color2, #000)" opacity="0.2" d="M30.378 17.585h0.004v-0.022c0-0.014-0.003-0.027-0.008-0.040s-0.013-0.024-0.023-0.034c-0.010-0.010-0.021-0.017-0.034-0.023s-0.026-0.008-0.040-0.008h-0.523c-0.014 0-0.027 0.003-0.040 0.008s-0.024 0.013-0.034 0.023c-0.010 0.010-0.017 0.021-0.023 0.034s-0.008 0.026-0.008 0.040v0.134c0 0.215 0.178 0.494 0.367 0.494 0.022-0 0.043-0.004 0.064-0.011-0.144-0.219-0.044-0.595 0.297-0.595z"></path>
<path fill="#000" style="fill: var(--color2, #000)" opacity="0.2" d="M31.602 17.558h0.040c-0.001-0.027-0.013-0.053-0.032-0.071s-0.046-0.029-0.073-0.029h-0.522c-0.028 0-0.054 0.011-0.074 0.031s-0.031 0.046-0.031 0.074v0.134c0 0.215 0.178 0.494 0.367 0.494 0.017-0 0.034-0.003 0.051-0.008-0.178-0.21-0.086-0.624 0.273-0.624z"></path>
<path fill="#000" style="fill: var(--color2, #000)" opacity="0.2" d="M32.898 17.577v-0.013c-0-0.028-0.011-0.054-0.031-0.074s-0.046-0.031-0.074-0.031h-0.525c-0.028 0-0.055 0.011-0.074 0.031s-0.031 0.046-0.031 0.074v0.134c0 0.215 0.178 0.494 0.367 0.494 0.024-0 0.048-0.005 0.071-0.013-0.148-0.219-0.050-0.603 0.297-0.603z"></path>
<path fill="#000" style="fill: var(--color2, #000)" opacity="0.2" d="M34.131 17.577h0.028v-0.014c0-0.014-0.003-0.027-0.008-0.040s-0.013-0.024-0.023-0.034c-0.010-0.010-0.021-0.017-0.034-0.023s-0.026-0.008-0.040-0.008h-0.525c-0.028 0-0.054 0.011-0.074 0.031s-0.031 0.046-0.031 0.074v0.134c0 0.215 0.178 0.494 0.367 0.494 0.017-0 0.033-0.003 0.050-0.007-0.158-0.216-0.061-0.607 0.29-0.607z"></path>
<path fill="#000" style="fill: var(--color2, #000)" opacity="0.2" d="M35.37 17.63c0.016 0 0.031 0 0.045 0v-0.071c0-0.028-0.011-0.054-0.031-0.074s-0.046-0.031-0.074-0.031h-0.525c-0.028 0-0.054 0.011-0.074 0.031s-0.031 0.046-0.031 0.074v0.134c0 0.215 0.178 0.494 0.367 0.494-0.11-0.219-0.004-0.558 0.321-0.558z"></path>
<path fill="#000" style="fill: var(--color2, #000)" opacity="0.2" d="M20.943 16.312h0.009v-0.035c-0-0.028-0.011-0.054-0.031-0.074s-0.047-0.031-0.074-0.031h-0.523c-0.028 0-0.054 0.011-0.074 0.031s-0.031 0.046-0.031 0.074v0.134c0 0.215 0.178 0.494 0.367 0.494 0.018-0 0.036-0.003 0.054-0.009-0.136-0.22-0.033-0.585 0.303-0.585z"></path>
<path fill="#000" style="fill: var(--color2, #000)" opacity="0.2" d="M22.174 16.312h0.035v-0.036c-0-0.028-0.011-0.054-0.031-0.074s-0.047-0.031-0.074-0.031h-0.525c-0.028 0-0.054 0.011-0.074 0.031s-0.031 0.046-0.031 0.074v0.134c0 0.215 0.178 0.494 0.367 0.494 0.010 0.001 0.021 0.001 0.031 0-0.14-0.221-0.039-0.592 0.301-0.592z"></path>
<path fill="#000" style="fill: var(--color2, #000)" opacity="0.2" d="M23.46 16.312h0.006v-0.035c-0-0.028-0.011-0.054-0.031-0.074s-0.046-0.031-0.074-0.031h-0.525c-0.014-0-0.028 0.002-0.041 0.008s-0.025 0.013-0.035 0.023c-0.010 0.010-0.018 0.021-0.023 0.034s-0.008 0.026-0.008 0.040v0.134c0 0.215 0.178 0.494 0.367 0.494 0.019-0 0.038-0.003 0.056-0.009-0.133-0.22-0.031-0.584 0.307-0.584z"></path>
<path fill="#000" style="fill: var(--color2, #000)" opacity="0.2" d="M24.692 16.306h0.032v-0.027c0-0.028-0.011-0.054-0.031-0.074s-0.046-0.031-0.074-0.031h-0.525c-0.028 0-0.054 0.011-0.074 0.031s-0.031 0.046-0.031 0.074v0.134c0 0.215 0.178 0.494 0.367 0.494 0.013-0 0.026-0.002 0.038-0.004-0.147-0.22-0.047-0.597 0.297-0.597z"></path>
<path fill="#000" style="fill: var(--color2, #000)" opacity="0.2" d="M25.917 16.312c0.023 0 0.045 0.002 0.067 0.006v-0.040c0-0.028-0.011-0.054-0.031-0.074s-0.046-0.031-0.074-0.031h-0.529c-0.028 0-0.054 0.011-0.074 0.031s-0.031 0.046-0.031 0.074v0.134c0 0.215 0.178 0.494 0.367 0.494-0.14-0.22-0.040-0.594 0.304-0.594z"></path>
<path fill="#000" style="fill: var(--color2, #000)" opacity="0.2" d="M27.183 16.267c0.019 0 0.038 0.001 0.057 0.003-0.002-0.026-0.014-0.051-0.033-0.069s-0.045-0.028-0.072-0.028h-0.525c-0.028 0-0.054 0.011-0.074 0.031s-0.031 0.046-0.031 0.074v0.134c0 0.215 0.179 0.494 0.367 0.494 0.014-0 0.027-0.002 0.040-0.005-0.184-0.21-0.094-0.634 0.27-0.634z"></path>
<path fill="#000" style="fill: var(--color2, #000)" opacity="0.2" d="M28.45 16.321c0.016 0 0.033 0 0.047 0v-0.046c-0-0.028-0.011-0.054-0.031-0.074s-0.046-0.031-0.074-0.031h-0.525c-0.028 0-0.055 0.011-0.074 0.031s-0.031 0.046-0.031 0.074v0.134c0 0.215 0.179 0.494 0.367 0.494h0.014c-0.132-0.219-0.033-0.582 0.306-0.582z"></path>
<path fill="#000" style="fill: var(--color2, #000)" opacity="0.2" d="M29.755 16.278c0-0.028-0.011-0.054-0.031-0.074s-0.046-0.031-0.074-0.031h-0.525c-0.014 0-0.027 0.003-0.040 0.008s-0.024 0.013-0.034 0.023c-0.010 0.010-0.017 0.021-0.023 0.034s-0.008 0.026-0.008 0.040v0.134c0 0.215 0.178 0.494 0.367 0.494 0.038-0.001 0.075-0.011 0.108-0.030-0.143-0.21-0.057-0.57 0.26-0.599z"></path>
<path fill="#000" style="fill: var(--color2, #000)" opacity="0.2" d="M31.015 16.306v-0.027c0-0.028-0.011-0.054-0.031-0.074s-0.046-0.031-0.074-0.031h-0.525c-0.028 0-0.054 0.011-0.074 0.031s-0.031 0.046-0.031 0.074v0.134c0 0.215 0.178 0.494 0.367 0.494 0.030-0 0.060-0.008 0.088-0.020-0.13-0.215-0.037-0.563 0.279-0.581z"></path>
<path fill="#000" style="fill: var(--color2, #000)" opacity="0.2" d="M32.227 16.285c0.015 0 0.030 0 0.044 0v-0.009c-0-0.028-0.011-0.054-0.031-0.074s-0.046-0.031-0.074-0.031h-0.525c-0.028 0-0.054 0.011-0.074 0.031s-0.031 0.046-0.031 0.074v0.134c0 0.215 0.178 0.494 0.367 0.494 0.013-0 0.027-0.002 0.040-0.005-0.164-0.212-0.070-0.614 0.284-0.614z"></path>
<path fill="#000" style="fill: var(--color2, #000)" opacity="0.2" d="M33.529 16.331v-0.053c-0-0.028-0.011-0.054-0.031-0.074s-0.046-0.031-0.074-0.031h-0.525c-0.028 0-0.055 0.011-0.074 0.031s-0.031 0.046-0.031 0.074v0.134c0 0.215 0.178 0.494 0.367 0.494 0.021-0 0.043-0.004 0.063-0.011-0.115-0.219-0.014-0.556 0.304-0.565z"></path>
<path fill="#000" style="fill: var(--color2, #000)" opacity="0.2" d="M34.727 16.294c0.020 0 0.040 0.002 0.059 0.004v-0.020c0-0.028-0.011-0.054-0.031-0.074s-0.046-0.031-0.074-0.031h-0.525c-0.014 0-0.027 0.003-0.040 0.008s-0.024 0.013-0.034 0.023-0.017 0.021-0.023 0.034c-0.005 0.013-0.008 0.026-0.008 0.040v0.134c0 0.215 0.178 0.494 0.367 0.494 0.007 0 0.013 0 0.020 0-0.159-0.218-0.062-0.612 0.288-0.612z"></path>
<path fill="#000" style="fill: var(--color2, #000)" opacity="0.2" d="M35.995 16.348c0.016-0.001 0.033-0.001 0.049 0v-0.071c0-0.028-0.011-0.054-0.031-0.074s-0.046-0.031-0.074-0.031h-0.525c-0.028 0-0.054 0.011-0.074 0.031s-0.031 0.046-0.031 0.074v0.134c0 0.212 0.176 0.494 0.365 0.494-0.111-0.222-0.004-0.558 0.32-0.558z"></path>
<path fill="#000" style="fill: var(--color2, #000)" opacity="0.2" d="M33.024 19.579v-0.696c0-0.047-0.038-0.085-0.086-0.085h-9.616c-0.047 0-0.086 0.038-0.086 0.085v0.696c0 0.047 0.038 0.085 0.086 0.085h9.616c0.047 0 0.086-0.038 0.086-0.085z"></path>
<path fill="#000" style="fill: var(--color2, #000)" opacity="0.2" d="M34.325 19.039v-0.071c0-0.014-0.003-0.027-0.008-0.040s-0.013-0.024-0.023-0.034-0.021-0.017-0.034-0.023c-0.013-0.005-0.026-0.008-0.040-0.008h-0.525c-0.014 0-0.027 0.003-0.040 0.008s-0.024 0.013-0.034 0.023c-0.010 0.010-0.017 0.021-0.023 0.034s-0.008 0.026-0.008 0.040v0.134c0 0.215 0.178 0.494 0.367 0.494 0.016-0 0.032-0.003 0.047-0.006-0.105-0.22 0.002-0.549 0.32-0.551z"></path>
<path fill="#000" style="fill: var(--color2, #000)" opacity="0.2" d="M22.609 18.993c0.021 0 0.041 0.002 0.062 0.005v-0.030c-0-0.028-0.011-0.054-0.031-0.074s-0.047-0.031-0.074-0.031h-0.525c-0.028 0-0.054 0.011-0.074 0.031s-0.031 0.046-0.031 0.074v0.134c0 0.215 0.178 0.494 0.367 0.494h0.012c-0.151-0.219-0.052-0.604 0.294-0.604z"></path>
<path fill="#000" style="fill: var(--color2, #000)" opacity="0.2" d="M19.452 4.269h17.357c0.119 0 0.234 0.047 0.318 0.131s0.132 0.198 0.132 0.317v3.953h-18.256v-3.953c0-0.119 0.047-0.233 0.132-0.317s0.199-0.131 0.318-0.131z"></path>
<path fill="#fff" style="fill: var(--color1, #fff)" d="M35.39 5.015h-14.516c-0.121-1.002-0.334-1.991-0.637-2.954h15.793c-0.308 0.962-0.522 1.951-0.64 2.954z"></path>
<path fill="#000" style="fill: var(--color2, #000)" opacity="0.2" d="M35.533 4.063c-0.105 0.575-0.142 0.952-0.142 0.952h-14.516c0 0-0.037-0.371-0.145-0.952h14.803z"></path>
<path fill="#263238" style="fill: var(--color3, #263238)" d="M35.192 7.503h-14.24v5.841h14.24v-5.841z"></path>
<path fill="#fff" style="fill: var(--color1, #fff)" opacity="0.16000000000000003" d="M27.717 12.827l0.075 0.004c0.094-1.457 0.189-2.916 0.283-4.377-0.12 1.462-0.24 2.92-0.358 4.373z"></path>
<path fill="#fff" style="fill: var(--color1, #fff)" opacity="0.16000000000000003" d="M27.475 12.809l0.075 0.006c0.164-1.447 0.327-2.901 0.491-4.361-0.188 1.461-0.377 2.912-0.566 4.354z"></path>
<path fill="#fff" style="fill: var(--color1, #fff)" opacity="0.16000000000000003" d="M27.239 12.782c0.025 0 0.050 0.006 0.075 0.008 0.232-1.432 0.466-2.877 0.701-4.337-0.26 1.461-0.518 2.904-0.776 4.328z"></path>
<path fill="#fff" style="fill: var(--color1, #fff)" opacity="0.16000000000000003" d="M27 12.746l0.076 0.012c0.301-1.412 0.605-2.847 0.911-4.306-0.33 1.46-0.659 2.892-0.986 4.294z"></path>
<path fill="#fff" style="fill: var(--color1, #fff)" opacity="0.16000000000000003" d="M26.762 12.701l0.076 0.015c0.368-1.385 0.741-2.806 1.119-4.264-0.402 1.458-0.801 2.874-1.196 4.248z"></path>
<path fill="#fff" style="fill: var(--color1, #fff)" opacity="0.16000000000000003" d="M26.526 12.648l0.076 0.019c0.434-1.354 0.88-2.758 1.328-4.215-0.474 1.456-0.946 2.854-1.404 4.195z"></path>
<path fill="#fff" style="fill: var(--color1, #fff)" opacity="0.16000000000000003" d="M26.29 12.584l0.077 0.023c0.496-1.316 1.015-2.701 1.534-4.156-0.546 1.455-1.090 2.832-1.611 4.133z"></path>
<path fill="#fff" style="fill: var(--color1, #fff)" opacity="0.16000000000000003" d="M26.058 12.512l0.077 0.025c0.56-1.271 1.148-2.634 1.74-4.087-0.621 1.453-1.235 2.806-1.817 4.062z"></path>
<path fill="#fff" style="fill: var(--color1, #fff)" opacity="0.16000000000000003" d="M25.823 12.43l0.078 0.028c0.62-1.223 1.279-2.558 1.944-4.009-0.692 1.451-1.379 2.774-2.022 3.981z"></path>
<path fill="#fff" style="fill: var(--color1, #fff)" opacity="0.16000000000000003" d="M25.594 12.336l0.078 0.033c0.677-1.168 1.408-2.471 2.145-3.922-0.767 1.448-1.524 2.744-2.223 3.889z"></path>
<path fill="#fff" style="fill: var(--color1, #fff)" opacity="0.16000000000000003" d="M25.367 12.232l0.078 0.037c0.731-1.105 1.533-2.379 2.344-3.823-0.84 1.444-1.67 2.707-2.422 3.786z"></path>
<path fill="#fff" style="fill: var(--color1, #fff)" opacity="0.16000000000000003" d="M25.143 12.116l0.078 0.042c0.779-1.036 1.655-2.274 2.539-3.715-0.807 1.269-1.68 2.495-2.617 3.672z"></path>
<path fill="#fff" style="fill: var(--color1, #fff)" opacity="0.16000000000000003" d="M24.926 11.989c0.025 0.016 0.052 0.031 0.079 0.047 0.983-1.141 1.895-2.341 2.73-3.593-0.855 1.244-1.794 2.429-2.809 3.547z"></path>
<path fill="#fff" style="fill: var(--color1, #fff)" opacity="0.16000000000000003" d="M24.708 11.849l0.077 0.053c1.060-1.077 2.036-2.233 2.918-3.459-0.9 1.217-1.902 2.357-2.995 3.406z"></path>
<path fill="#fff" style="fill: var(--color1, #fff)" opacity="0.16000000000000003" d="M27.675 8.438c-1.139 1.422-2.254 2.508-3.174 3.257l0.076 0.059c1.137-1.004 2.174-2.115 3.099-3.316z"></path>
<path fill="#fff" style="fill: var(--color1, #fff)" opacity="0.16000000000000003" d="M27.647 8.436c-1.214 1.412-2.4 2.444-3.348 3.093l0.075 0.064c0.935-0.69 2.091-1.742 3.273-3.158z"></path>
<path fill="#fff" style="fill: var(--color1, #fff)" opacity="0.16000000000000003" d="M27.616 8.434c-1.287 1.401-2.54 2.373-3.509 2.915 0.023 0.024 0.047 0.048 0.071 0.071 0.96-0.586 2.186-1.581 3.438-2.985z"></path>
<path fill="#fff" style="fill: var(--color1, #fff)" opacity="0.16000000000000003" d="M27.59 8.431c-1.357 1.387-2.675 2.294-3.66 2.725l0.071 0.077c0.975-0.478 2.264-1.41 3.589-2.802z"></path>
<path fill="#fff" style="fill: var(--color1, #fff)" opacity="0.16000000000000003" d="M23.767 10.95c0.020 0.028 0.042 0.056 0.063 0.084 0.988-0.364 2.337-1.231 3.732-2.605-1.424 1.367-2.802 2.207-3.795 2.521z"></path>
<path fill="#fff" style="fill: var(--color1, #fff)" opacity="0.16000000000000003" d="M23.623 10.735c0.018 0.030 0.038 0.059 0.057 0.089 0.991-0.248 2.399-1.047 3.855-2.4-1.484 1.346-2.917 2.114-3.912 2.311z"></path>
<path fill="#fff" style="fill: var(--color1, #fff)" opacity="0.16000000000000003" d="M23.499 10.517c0.016 0.031 0.032 0.061 0.048 0.092 0.991-0.134 2.447-0.862 3.958-2.185-1.536 1.31-3.015 2.008-4.006 2.092z"></path>
<path fill="#fff" style="fill: var(--color1, #fff)" opacity="0.16000000000000003" d="M23.399 10.294c0.013 0.031 0.026 0.063 0.040 0.094 0.986-0.024 2.478-0.68 4.036-1.968-1.575 1.275-3.091 1.899-4.076 1.874z"></path>
<path fill="#fff" style="fill: var(--color1, #fff)" opacity="0.16000000000000003" d="M27.957 12.837h0.074c0.023-1.459 0.046-2.92 0.071-4.383-0.050 1.462-0.098 2.923-0.145 4.383z"></path>
<path fill="#fff" style="fill: var(--color1, #fff)" opacity="0.16000000000000003" d="M28.196 12.838h0.075c-0.047-1.459-0.094-2.92-0.142-4.383l0.067 4.383z"></path>
<path fill="#fff" style="fill: var(--color1, #fff)" opacity="0.16000000000000003" d="M28.436 12.832h0.075c-0.118-1.454-0.236-2.913-0.354-4.377 0.093 1.462 0.186 2.921 0.279 4.377z"></path>
<path fill="#fff" style="fill: var(--color1, #fff)" opacity="0.16000000000000003" d="M28.678 12.817l0.075-0.006c-0.189-1.443-0.378-2.896-0.566-4.357 0.162 1.461 0.326 2.916 0.491 4.363z"></path>
<path fill="#fff" style="fill: var(--color1, #fff)" opacity="0.16000000000000003" d="M28.914 12.795l0.075-0.009c-0.257-1.427-0.516-2.87-0.779-4.332 0.237 1.461 0.471 2.908 0.704 4.341z"></path>
<path fill="#fff" style="fill: var(--color1, #fff)" opacity="0.16000000000000003" d="M29.153 12.763l0.076-0.011c-0.326-1.405-0.655-2.837-0.988-4.298 0.306 1.461 0.61 2.897 0.912 4.309z"></path>
<path fill="#fff" style="fill: var(--color1, #fff)" opacity="0.16000000000000003" d="M29.391 12.723l0.076-0.014c-0.393-1.377-0.792-2.796-1.197-4.255 0.377 1.46 0.751 2.883 1.122 4.27z"></path>
<path fill="#fff" style="fill: var(--color1, #fff)" opacity="0.16000000000000003" d="M29.627 12.673l0.077-0.018c-0.459-1.341-0.932-2.744-1.407-4.203 0.449 1.459 0.892 2.866 1.33 4.221z"></path>
<path fill="#fff" style="fill: var(--color1, #fff)" opacity="0.16000000000000003" d="M29.864 12.615l0.076-0.022c-0.523-1.304-1.067-2.683-1.614-4.143 0.52 1.459 1.039 2.843 1.538 4.164z"></path>
<path fill="#fff" style="fill: var(--color1, #fff)" opacity="0.16000000000000003" d="M30.098 12.547l0.078-0.025c-0.586-1.258-1.204-2.612-1.822-4.071 0.593 1.456 1.183 2.821 1.744 4.097z"></path>
<path fill="#fff" style="fill: var(--color1, #fff)" opacity="0.16000000000000003" d="M30.331 12.468l0.078-0.029c-0.644-1.206-1.333-2.536-2.027-3.991 0.666 1.455 1.327 2.793 1.949 4.020z"></path>
<path fill="#fff" style="fill: var(--color1, #fff)" opacity="0.16000000000000003" d="M30.562 12.38c0.026-0.011 0.053-0.021 0.079-0.033-0.701-1.148-1.461-2.447-2.23-3.9 0.74 1.453 1.471 2.762 2.151 3.933z"></path>
<path fill="#fff" style="fill: var(--color1, #fff)" opacity="0.16000000000000003" d="M30.791 12.282l0.079-0.037c-0.754-1.082-1.587-2.348-2.43-3.798 0.814 1.449 1.618 2.727 2.352 3.835z"></path>
<path fill="#fff" style="fill: var(--color1, #fff)" opacity="0.16000000000000003" d="M31.015 12.171c0.026-0.013 0.052-0.028 0.078-0.042-0.94-1.181-1.817-2.411-2.627-3.685 0.889 1.447 1.77 2.689 2.549 3.727z"></path>
<path fill="#fff" style="fill: var(--color1, #fff)" opacity="0.16000000000000003" d="M31.237 12.049l0.079-0.047c-1.020-1.122-1.962-2.312-2.821-3.56 0.839 1.257 1.755 2.462 2.742 3.607z"></path>
<path fill="#fff" style="fill: var(--color1, #fff)" opacity="0.16000000000000003" d="M28.524 8.44c0.886 1.232 1.865 2.394 2.931 3.475l0.079-0.053c-1.098-1.054-2.105-2.198-3.009-3.422z"></path>
<path fill="#fff" style="fill: var(--color1, #fff)" opacity="0.16000000000000003" d="M28.552 8.438c0.929 1.207 1.972 2.322 3.116 3.329 0.026-0.019 0.051-0.039 0.076-0.059-0.923-0.75-2.046-1.84-3.192-3.271z"></path>
<path fill="#fff" style="fill: var(--color1, #fff)" opacity="0.16000000000000003" d="M28.581 8.436c1.19 1.424 2.352 2.48 3.29 3.17 0.026-0.021 0.052-0.042 0.076-0.064-0.952-0.648-2.145-1.683-3.367-3.106z"></path>
<path fill="#fff" style="fill: var(--color1, #fff)" opacity="0.16000000000000003" d="M28.608 8.434c1.264 1.412 2.496 2.414 3.459 2.999 0.025-0.023 0.048-0.048 0.071-0.071-0.97-0.541-2.233-1.516-3.53-2.928z"></path>
<path fill="#fff" style="fill: var(--color1, #fff)" opacity="0.16000000000000003" d="M28.637 8.431c1.336 1.402 2.635 2.339 3.611 2.813l0.071-0.078c-0.985-0.426-2.314-1.336-3.682-2.736z"></path>
<path fill="#fff" style="fill: var(--color1, #fff)" opacity="0.16000000000000003" d="M32.423 11.044c0.022-0.028 0.042-0.056 0.064-0.085-0.995-0.307-2.386-1.149-3.824-2.529 1.408 1.386 2.77 2.256 3.76 2.615z"></path>
<path fill="#fff" style="fill: var(--color1, #fff)" opacity="0.16000000000000003" d="M32.577 10.831l0.058-0.090c-0.996-0.187-2.442-0.958-3.942-2.315 1.472 1.365 2.888 2.165 3.884 2.405z"></path>
<path fill="#fff" style="fill: var(--color1, #fff)" opacity="0.16000000000000003" d="M32.715 10.612c0.017-0.031 0.033-0.062 0.050-0.094-0.991-0.071-2.486-0.769-4.036-2.095 1.521 1.337 2.995 2.066 3.987 2.188z"></path>
<path fill="#fff" style="fill: var(--color1, #fff)" opacity="0.16000000000000003" d="M28.749 8.42c1.575 1.303 3.087 1.959 4.071 1.969 0.014-0.032 0.028-0.064 0.041-0.095-0.983 0.040-2.515-0.585-4.113-1.874z"></path>
<path fill="#000" style="fill: var(--color2, #000)" opacity="0.2" d="M26.058 8.56c-0.268 0.686 0.022 2.683 1.959 2.683s2.64-1.403 2.561-2.27l2.585-0.415c0 0 0.792 2.183-0.89 3.71s-7.514 1.428-8.747 0.268c-1.233-1.161-0.549-3.453-0.549-3.453l3.081-0.522z"></path>
<path fill="#999" style="fill: var(--color4, #999)" d="M37.405 5.599v-0.481c0-0.018 0.006-0.035 0.016-0.050s0.025-0.025 0.043-0.030l0.354-0.11v-0.481c0-0.058 0.023-0.113 0.064-0.154s0.096-0.064 0.154-0.064h0.425c0.021-0 0.041 0.007 0.057 0.022s0.025 0.034 0.026 0.055v0.155c0 0.021-0.008 0.042-0.023 0.057s-0.035 0.024-0.057 0.024h-0.54v0.471c-0 0.014-0.004 0.028-0.011 0.040s-0.017 0.023-0.029 0.030l-0.302 0.182v0.335l-0.176-0.001z"></path>
<path fill="#263238" style="fill: var(--color3, #263238)" d="M37.871 5.599h-0.466v1.389h0.466v-1.389z"></path>
<path fill="#757575" style="fill: var(--color5, #757575)" d="M38.454 5.481h-0.583v1.625h0.583v-1.625z"></path>
<path fill="#000" style="fill: var(--color2, #000)" opacity="0.2" d="M38.452 6.471h-0.581v0.635h0.581v-0.635z"></path>
<path fill="#263238" style="fill: var(--color3, #263238)" d="M18.39 6.987h0.466v-1.389h-0.466v1.389z"></path>
<path fill="#757575" style="fill: var(--color5, #757575)" d="M17.807 7.105h0.583v-1.625h-0.583v1.625z"></path>
<path fill="#000" style="fill: var(--color2, #000)" opacity="0.2" d="M18.391 6.471h-0.583v0.62h0.583v-0.62z"></path>
<path fill="#fff" style="fill: var(--color1, #fff)" d="M18.786 6.376c0.042-0.11 0.049-0.23 0.019-0.344s-0.095-0.216-0.186-0.291l-0.343-0.282c-0.022-0.018-0.047-0.032-0.075-0.040s-0.056-0.011-0.084-0.007c-0.028 0.003-0.056 0.013-0.080 0.027s-0.046 0.034-0.063 0.057l-1.359 1.869c-0.026 0.035-0.040 0.077-0.040 0.121v2.007c-0 0.027 0.005 0.054 0.016 0.078s0.026 0.047 0.045 0.066c0.019 0.019 0.042 0.034 0.067 0.044s0.052 0.015 0.079 0.015c0.054 0 0.106-0.021 0.144-0.060s0.060-0.090 0.060-0.144v-1.63c0-0.040 0.013-0.079 0.036-0.112l1.016-1.412c0.009-0.012 0.020-0.023 0.033-0.031s0.028-0.013 0.043-0.015c0.015-0.002 0.031-0.001 0.045 0.004s0.028 0.012 0.040 0.022l0.187 0.158c0.046 0.039 0.105 0.061 0.166 0.061 0.050-0 0.1-0.016 0.141-0.044s0.074-0.069 0.092-0.116z"></path>
<path fill="#999" style="fill: var(--color4, #999)" d="M18.505 6.193c0.054 0 0.097-0.043 0.097-0.097s-0.043-0.097-0.097-0.097c-0.054 0-0.097 0.043-0.097 0.097s0.043 0.097 0.097 0.097z"></path>
<path fill="#263238" style="fill: var(--color3, #263238)" d="M36.973 4.927h-17.685v2.731h17.685v-2.731z"></path>
<path fill="#fff" style="fill: var(--color1, #fff)" opacity="0.2" d="M36.717 5.133h-17.18c-0.054 0-0.098 0.044-0.098 0.097v0.442c0 0.054 0.044 0.097 0.098 0.097h17.18c0.054 0 0.098-0.044 0.098-0.097v-0.442c0-0.054-0.044-0.097-0.098-0.097z"></path>
<path fill="#fff" style="fill: var(--color1, #fff)" d="M35.39 8.207h-14.516c-0.409-0.932-0.626-1.937-0.637-2.954h15.793c0 1.368-0.64 2.954-0.64 2.954z"></path>
<path fill="#000" style="fill: var(--color2, #000)" opacity="0.2" d="M35.538 7.799c-0.086 0.254-0.148 0.408-0.148 0.408h-14.516c0 0-0.071-0.148-0.168-0.408h14.832z"></path>
<path fill="#000" style="fill: var(--color2, #000)" opacity="0.2" d="M35.84 6.73c-0.049 0.212-0.103 0.419-0.156 0.601h-15.136c-0.052-0.179-0.106-0.382-0.153-0.601h15.445z"></path>
<path fill="#757575" style="fill: var(--color5, #757575)" d="M19.285 4.787h-0.433v3.013h0.433v-3.013z"></path>
<path fill="#000" style="fill: var(--color2, #000)" opacity="0.2" d="M19.276 6.906h-0.421v0.894h0.421v-0.894z"></path>
<path fill="#757575" style="fill: var(--color5, #757575)" d="M37.408 4.787h-0.433v3.013h0.433v-3.013z"></path>
<path fill="#000" style="fill: var(--color2, #000)" opacity="0.2" d="M37.409 6.906h-0.436v0.894h0.436v-0.894z"></path>
<path fill="#999" style="fill: var(--color4, #999)" d="M36.979 4.661v2.198h-17.698v-2.198h-0.17v2.345h18.038v-2.345h-0.17z"></path>
<path fill="#fff" style="fill: var(--color1, #fff)" d="M38.025 8.363v4.928c0 0.083-0.033 0.163-0.092 0.222s-0.139 0.092-0.222 0.092h-19.163c-0.083 0-0.163-0.033-0.222-0.092s-0.092-0.138-0.092-0.222v-4.928c0-0.083 0.033-0.163 0.092-0.222s0.139-0.092 0.222-0.092h8.83v0.313c0 0-1.508 1.304-4.107 1.785 0.372 1.681 2.407 2.965 4.863 2.965s4.491-1.285 4.864-2.965c-2.603-0.481-4.11-1.785-4.11-1.785v-0.316h8.826c0.041 0 0.082 0.009 0.12 0.025s0.073 0.039 0.102 0.069c0.029 0.029 0.052 0.064 0.068 0.102s0.023 0.079 0.023 0.12z"></path>
<path fill="#fff" style="fill: var(--color1, #fff)" d="M38.025 8.363v4.928c0 0.041-0.008 0.082-0.024 0.12s-0.039 0.073-0.068 0.102c-0.029 0.029-0.064 0.052-0.102 0.068s-0.079 0.024-0.12 0.024h-19.162c-0.041 0-0.082-0.008-0.12-0.024s-0.073-0.039-0.102-0.068c-0.029-0.029-0.052-0.064-0.068-0.102s-0.024-0.079-0.024-0.12v-4.928c0-0.083 0.033-0.163 0.093-0.222s0.139-0.092 0.223-0.092h8.83v0.314c0 0-1.508 1.303-4.107 1.785 0.372 1.681 2.407 2.965 4.864 2.965s4.49-1.285 4.863-2.965c-2.603-0.481-4.11-1.785-4.11-1.785v-0.316h8.826c0.084 0.001 0.163 0.034 0.222 0.094s0.091 0.139 0.091 0.223z"></path>
<path fill="#fff" style="fill: var(--color1, #fff)" opacity="0.2" d="M37.6 8.438v4.55c0 0.030-0.006 0.060-0.018 0.088s-0.029 0.053-0.050 0.075c-0.022 0.021-0.047 0.038-0.075 0.050s-0.058 0.017-0.089 0.017h-18.633c-0.030 0-0.060-0.006-0.088-0.017s-0.053-0.028-0.075-0.050c-0.021-0.021-0.038-0.047-0.050-0.075s-0.017-0.058-0.017-0.088v-4.55c-0-0.030 0.006-0.060 0.017-0.088s0.028-0.053 0.050-0.075c0.021-0.021 0.047-0.038 0.075-0.050s0.058-0.018 0.088-0.018h8.639v0.155c0 0-1.508 1.303-4.107 1.785 0.372 1.681 2.407 2.965 4.864 2.965s4.49-1.286 4.863-2.965c-2.603-0.481-4.11-1.785-4.11-1.785v-0.155h8.486c0.061 0.001 0.119 0.025 0.162 0.068s0.067 0.102 0.067 0.162z"></path>
<path fill="#000" style="fill: var(--color2, #000)" opacity="0.13999999999999999" d="M31.695 15.065l0.941 2.617c0 0 0.407-2.88 0.65-2.88s0.766 1.575 0.766 1.575 0.323-0.822 0.629-0.851c0.306-0.030 0.583 2.018 0.583 2.018l0.047 4.544-0.386 6.872c0 0-2.462-2.704-3.18-3.401s-1.404-2.23-1.602-2.541-0.249-1.941-0.249-1.941c0.251-0.32 0.382-0.718 0.371-1.124 0 0 0.578-0.964 0.542-1.676s-0.125-3.477 0.887-3.211z"></path>
<path fill="#fff" style="fill: var(--color1, #fff)" d="M39.102 27.742l-3.727 1.955c0-0.020-0.49-0.811-1.082-1.706-0.268-0.405-0.557-0.831-0.831-1.216-0.449-0.63-1.020-1.175-1.069-1.293-0.142-0.353-1.233-1.675-1.478-2.189s-0.3-2.113-0.408-2.489c-0.108-0.376 0.201-0.736 0.449-0.911s0.508-0.635 0.508-0.635-0.274-1.065-0.277-1.606c-0.003-0.541-0.188-2.431 0.033-2.608s0.419-0.102 0.474 0.019c0.181 0.4 0.344 1.407 0.484 1.871s0.402 1.809 0.53 1.906 0.358-0.266 0.358-0.266c0 0 0.022-1.129 0.071-1.597l-0.071-1.483c0 0-0.133-0.891 0.175-0.976 0.425-0.117 0.58 0.15 0.628 0.262s0.246 0.759 0.246 0.759l0.011 0.044c0 0.004 0 0.008 0 0.013v0.008c0.003 0.012 0.007 0.026 0.011 0.040 0.008 0.030 0.017 0.065 0.027 0.105 0.094 0.368 0.276 1.104 0.268 1.286-0.011 0.245-0.096 1.602 0.025 1.883l0.188-1.874c0 0-0.304-1.444-0.215-1.653s0.506 0.022 0.555 0.104c0.050 0.082 0.455 0.577 0.527 0.767l0.071 0.189c0 0 0.1-0.448 0.334-0.331s0.264 0.685 0.28 0.934 0.186 1.847 0.212 1.85c0.026 0.003 0.297 0.833 0.26 1.382-0.077 1.174 0.127 2.047 0.134 2.498s-0.334 1.494-0.334 1.494c0.012 0.020 0.234 0.397 0.295 0.729 0.045 0.243 0.838 1.12 1.487 1.819 0.451 0.481 0.829 0.875 0.849 0.918z"></path>
<path fill="#fff" style="fill: var(--color1, #fff)" opacity="0.4" d="M34.294 27.992c-0.268-0.405-0.557-0.831-0.831-1.216-0.449-0.63-1.020-1.175-1.069-1.293-0.142-0.353-1.233-1.674-1.478-2.188s-0.3-2.113-0.408-2.489 0.201-0.736 0.449-0.911c0.248-0.175 0.508-0.635 0.508-0.635s-0.274-1.065-0.277-1.606c-0.003-0.541-0.188-2.431 0.033-2.608s0.419-0.102 0.474 0.019c0.181 0.4 0.344 1.407 0.484 1.871s0.401 1.809 0.53 1.906c0.129 0.097 0.358-0.266 0.358-0.266s0.022-1.129 0.071-1.598l-0.071-1.482c0 0-0.133-0.891 0.175-0.976 0.425-0.117 0.58 0.15 0.628 0.262s0.246 0.759 0.246 0.759l0.011 0.044c0 0.004 0 0.008 0 0.013v0.008c0.003 0.012 0.006 0.026 0.011 0.040 0.008 0.030 0.017 0.065 0.027 0.105-0.11-0.173-0.261-0.321-0.462-0.359-0.566-0.11-0.444 0.518-0.39 0.895 0.031 0.25 0.025 0.503-0.018 0.752l0.142-0.081c-0.102 0.181-0.248 1.689-0.248 2.025s-0.266 0.447-0.505 0.349c-0.239-0.098-0.324-1.637-0.505-1.913s-0.685 0.251-0.708 0.734c-0.023 0.482 0.428 1.92 0.321 2.259s-0.105 1.624-0.105 1.624l-0.13-0.331c0.009 0.045 0 0.197-0.273 0.644-0.102 0.162-0.169 0.344-0.194 0.533s-0.010 0.382 0.046 0.565c0.166 0.366 1.010 1.332 1.152 1.432 0 0 0.103-0.419 0.425-0.308-0.11 0.174-0.19 0.365-0.236 0.565-0.067 0.308 0.605 0.505 0.816 0.798 0.129 0.179 0.215 0.723 1 2.061z"></path>
<path fill="#fff" style="fill: var(--color1, #fff)" opacity="0.4" d="M38.258 26.825c-0.663-0.666-1.829-1.3-1.758-1.466 0.095-0.223-0.025-0.698-0.229-1.084s0.071-1.011 0.071-1.011l0.126 0.364c0.101-0.419 0.113-0.855 0.035-1.279-0.129-0.721-0.229-0.467-0.229-0.467s0.026-0.649 0.142-1.004c0.115-0.354 0.212-1.215 0.053-1.724s-0.496-0.413-0.586-0.238c-0.090 0.175 0.006 0.858 0.081 1.082s-0.242 0.6-0.248 0.32c-0.006-0.28-0.126-1.059-0.126-1.059l0.24-1.565-0.24-1.243c0 0 0.1-0.448 0.334-0.331s0.263 0.685 0.28 0.934 0.186 1.847 0.212 1.85c0.026 0.003 0.297 0.833 0.26 1.382-0.077 1.174 0.127 2.047 0.134 2.498s-0.334 1.494-0.334 1.494c0.012 0.020 0.234 0.397 0.295 0.729 0.045 0.243 0.838 1.12 1.487 1.818l0.001 0.001z"></path>
<path fill="#fff" style="fill: var(--color1, #fff)" opacity="0.4" d="M35.514 16.262c0.013 0.035 0.025 0.064 0.033 0.087-0.225-0.522-0.609-0.36-0.677-0.212s0.161 1.068 0.212 1.211c0.052 0.143-0.205 1.281-0.243 1.658s-0.137 0.454-0.137 0.454c-0.254 0.019-0.283-0.68-0.283-0.776 0.005 0.080 0.021 0.16 0.047 0.236l0.188-1.874c0 0-0.311-1.446-0.222-1.654s0.506 0.022 0.555 0.104c0.050 0.082 0.455 0.577 0.527 0.767z"></path>
<path fill="#fff" style="fill: var(--color1, #fff)" d="M32.303 17.421c0 0-0.115-0.169-0.417-0.113s-0.437 0.482-0.437 0.482z"></path>
<path fill="#000" style="fill: var(--color2, #000)" opacity="0.13999999999999999" d="M25.673 16.235c0.425 0.328 0.067 2.343 0.067 2.343l0.038 0.656 0.729-0.316 0.332 1.401c0 0-0.009 0.513 0.261 0.706 0 0 0.067 1.151 0 1.993s-1.416 1.83-1.881 2.714-3.499 3.479-3.499 3.479l-2.569-1.218 1.857-7.479 1.664-2.133 0.986-2.453c0 0 0.169 1.602 0.071 2.683l1.945-2.375z"></path>
<path fill="#fff" style="fill: var(--color1, #fff)" d="M26.388 20.711c-0.064 0.309 0.091 2.004 0.064 2.233s-1.379 1.765-1.447 1.881c-0.068 0.116-0.972 0.635-1.183 0.883-0.983 1.143-1.52 2.195-1.951 3.251-0.083 0.203-0.162 0.407-0.24 0.612l-3.9-2.259c0.328-0.405 0.637-0.765 0.921-1.093 0.567-0.664 1.018-1.196 1.238-1.698 0.068-0.128 0.145-0.251 0.232-0.367 0.088-0.124 0.166-0.227 0.166-0.227s-0.283-0.796-0.217-1.045c0.066-0.25-0.081-2.304-0.081-2.304s-0.192-1.399-0.381-1.752c-0.046-0.092-0.067-0.195-0.061-0.298 0.009-0.323 0.197-0.729 0.289-1.2 0.123-0.635 0.064-0.95 0.45-0.73s0.206 1.553 0.206 1.553l0.584 1.29c0.154-0.312 0-1.223-0.008-1.438 0-0.035 0-0.094-0.006-0.17-0.012-0.371-0.037-1.144-0.005-1.449 0-0.017 0-0.032 0.006-0.047 0.047-0.315 0.217-1.317 0.324-1.428 0.16-0.165 0.414-0.304 0.654 0.071 0.134 0.212 0.076 1.891 0.076 1.891s0.555-0.668 0.724-0.831c0.169-0.163 0.68-0.461 0.816-0.116s-0.367 1.412-0.367 1.412c0.106 0.247 0.118 0.931 0.118 0.931s0.239 0.855 0.385 0.847h0.006c0.043-0.009 0.089-0.165 0.138-0.383 0.12-0.534 0.251-1.449 0.354-1.528l0.071-0.056c0.003-0.004 0.007-0.008 0.011-0.011l0.026-0.023c0.251-0.222 0.779-0.716 0.779-0.716s0.038-0.236 0.5-0.164c0.462 0.073-0.205 1.433-0.205 1.433-0.093 0.433-0.235 1.546-0.235 1.546-0.043 0.463-0.018 1.708-0.018 1.708s0.219-0.724 0.205-0.988c-0.014-0.264 0.435-0.911 0.566-1.077s0.72-0.108 0.556 0.212c-0.163 0.32-0.097 1.333-0.161 1.644z"></path>
<path fill="#fff" style="fill: var(--color1, #fff)" opacity="0.4" d="M19.887 24.524c0.068-0.128 0.145-0.251 0.232-0.367 0 0-0.23 0.635-0.253 0.973-0.015 0.223-0.604 0.609-1.218 1.091 0.57-0.664 1.018-1.196 1.239-1.698z"></path>
<path fill="#fff" style="fill: var(--color1, #fff)" opacity="0.4" d="M20.12 24.157c0.088-0.124 0.166-0.227 0.166-0.227s-0.283-0.796-0.217-1.045c0.066-0.25-0.081-2.304-0.081-2.304s-0.192-1.398-0.381-1.751l0.441 0.767c0 0-0.043 0.606 0.082 0.939s0.283 1.347 0.283 1.347c0 0-0.185 0.853-0.122 1.16s0.347 0.195 0.347 0.195 0.14 0.562-0.517 0.919z"></path>
<path fill="#fff" style="fill: var(--color1, #fff)" opacity="0.4" d="M21.147 18.381c0.304 1.773-0.22 1.283-0.409 0.9s-0.633-1.107-0.967-0.952c-0.094 0.044-0.172 0.115-0.226 0.203 0.009-0.323 0.197-0.729 0.289-1.2 0.123-0.635 0.064-0.949 0.45-0.73s0.206 1.553 0.206 1.553l0.584 1.29c0.154-0.312 0-1.223-0.008-1.438 0-0.035 0-0.094-0.006-0.17 0.023 0.163 0.052 0.345 0.086 0.544z"></path>
<path fill="#fff" style="fill: var(--color1, #fff)" opacity="0.4" d="M21.891 16.628c0 0-0.328-0.428-0.613-0.406-0.049 0.003-0.096 0.020-0.135 0.049s-0.069 0.069-0.086 0.115c0-0.017 0-0.032 0.006-0.047 0.047-0.315 0.217-1.317 0.324-1.428 0.16-0.165 0.414-0.304 0.654 0.071 0.134 0.212 0.076 1.891 0.076 1.891s0.555-0.668 0.724-0.831c0.169-0.163 0.68-0.461 0.816-0.116s-0.367 1.412-0.367 1.412c0.106 0.247 0.118 0.931 0.118 0.931s0.239 0.855 0.385 0.847c-0.323 0.606-0.538-0.733-0.538-0.733 0.048-0.277-0.123-0.877-0.106-1.035s-0.297-0.717-0.827-0.565c-0.53 0.152-0.147 2.239-0.147 2.239-0.105 0.166-0.166 0.356-0.177 0.552-0.163-0.201 0-0.777 0-0.777-0.145-0.551-0.106-2.169-0.106-2.169z"></path>
<path fill="#fff" style="fill: var(--color1, #fff)" opacity="0.4" d="M24.359 17.146c-0.226 0.236-0.195 0.834-0.425 1.585 0.12-0.534 0.251-1.449 0.354-1.528l0.071-0.056z"></path>
<path fill="#fff" style="fill: var(--color1, #fff)" opacity="0.4" d="M26.388 20.711c-0.064 0.309 0.091 2.004 0.064 2.233s-1.379 1.765-1.447 1.881c-0.068 0.116-0.972 0.635-1.182 0.883-0.983 1.143-1.52 2.195-1.951 3.251 0.162-0.547 0.358-1.084 0.587-1.607 0.465-1.043 0.655-1.228 0.934-1.526s0.248-0.931 0.248-0.931c0.206-0.049 0.417-0.074 0.629-0.074 0.354 0 1.402-1.49 1.762-1.751s0.425-0.261 0-0.837c-0.425-0.576-0.305 0.093-0.432 0.071s-0.197 0.256-0.197 0.256c-0.045-0.587-0.425-1.271-0.505-1.442s0.194-1.173 0.137-1.451c-0.057-0.279 0.244-1.977 0.244-1.977s-0.038-0.651-0.629-0.654c-0.091-0.005-0.181 0.022-0.254 0.076 0.251-0.222 0.779-0.716 0.779-0.716s0.038-0.236 0.5-0.164c0.462 0.073-0.205 1.433-0.205 1.433-0.093 0.433-0.235 1.546-0.235 1.546-0.043 0.463-0.018 1.708-0.018 1.708s0.219-0.724 0.205-0.988c-0.014-0.264 0.435-0.911 0.567-1.077s0.719-0.108 0.556 0.212c-0.163 0.32-0.091 1.335-0.156 1.646z"></path>
</symbol>
<symbol id="icon-reading" viewBox="0 0 47 32">
<path fill="#fff" style="fill: var(--color1, #fff)" d="M34.554 17.998c0 0-0.274 0.174-0.429-0.025s0.105-0.568-0.124-0.724-0.627 0.083-0.627 0.083c0 0 0.305 0.089 0.296 0.256s-0.157 0.232-0.175 0.157-0.166-0.44-0.414-0.287c-0.071 0.042-0.134 0.099-0.183 0.165s-0.084 0.143-0.103 0.224c0 0 0.578-0.062 0.613 0.156s-0.237-0.038-0.475-0.052c-0.239-0.014-0.456 0.021-0.44 0.165 0.005 0.128-0.002 0.255-0.023 0.381 0.131-0.108 0.296-0.167 0.465-0.164 0.262 0.015 0.253 0.182 0.014 0.168s-0.443 0.213-0.443 0.213c0 0 0.218 0.371 0.494 0.555s0.376 0.116 0.407-0.024c0.031-0.14-0.042-0.504 0.125-0.495s-0.276 0.629-0.063 0.666 0.385-0.026 0.441-0.166l0.058-0.14c0 0-0.075-0.363-0.042-0.504s0.072 0.004 0.109 0.174c0.038 0.17 0.062 0.577 0.134 0.558s0.306-0.317 0.361-0.433c0.055-0.116-0.307-0.472-0.303-0.544s0.283 0.064 0.327 0.139c0.032 0.057 0.060 0.115 0.086 0.174 0 0 0.175-0.109 0.17-0.444s-0.254-0.232-0.254-0.232z"></path>
<path fill="#263238" style="fill: var(--color3, #263238)" opacity="0.3" d="M34.554 17.998c0 0-0.274 0.174-0.429-0.025s0.105-0.568-0.124-0.724-0.627 0.083-0.627 0.083c0 0 0.305 0.089 0.296 0.256s-0.157 0.232-0.175 0.157-0.166-0.44-0.414-0.287c-0.071 0.042-0.134 0.099-0.183 0.165s-0.084 0.143-0.103 0.224c0 0 0.578-0.062 0.613 0.156s-0.237-0.038-0.475-0.052c-0.239-0.014-0.456 0.021-0.44 0.165 0.005 0.128-0.002 0.255-0.023 0.381 0.131-0.108 0.296-0.167 0.465-0.164 0.262 0.015 0.253 0.182 0.014 0.168s-0.443 0.213-0.443 0.213c0 0 0.218 0.371 0.494 0.555s0.376 0.116 0.407-0.024c0.031-0.14-0.042-0.504 0.125-0.495s-0.276 0.629-0.063 0.666 0.385-0.026 0.441-0.166l0.058-0.14c0 0-0.075-0.363-0.042-0.504s0.072 0.004 0.109 0.174c0.038 0.17 0.062 0.577 0.134 0.558s0.306-0.317 0.361-0.433c0.055-0.116-0.307-0.472-0.303-0.544s0.283 0.064 0.327 0.139c0.032 0.057 0.060 0.115 0.086 0.174 0 0 0.175-0.109 0.17-0.444s-0.254-0.232-0.254-0.232z"></path>
<path fill="#fff" style="fill: var(--color1, #fff)" d="M35.529 17.291c0 0-0.011 0.393-0.318 0.412s-0.497-0.491-0.811-0.369c-0.314 0.123-0.344 0.683-0.344 0.683s0.298-0.245 0.459-0.121c0.161 0.124 0.123 0.314 0.037 0.284s-0.554-0.134-0.57 0.218c-0.007 0.1 0.007 0.201 0.041 0.296s0.086 0.182 0.154 0.256c0 0 0.332-0.619 0.574-0.507s-0.2 0.211-0.377 0.44-0.291 0.47-0.134 0.553c0.131 0.082 0.254 0.176 0.367 0.282 0 0-0.042-0.324 0.153-0.576s0.354-0.128 0.178 0.101c-0.176 0.229-0.089 0.588-0.089 0.588s0.52 0.036 0.892-0.116c0.372-0.152 0.375-0.296 0.255-0.425s-0.534-0.302-0.411-0.462c0.123-0.16 0.442 0.705 0.624 0.517s0.236-0.402 0.134-0.553l-0.102-0.152c0 0-0.414-0.174-0.534-0.302s0.053-0.069 0.249 0.009c0.196 0.078 0.62 0.332 0.651 0.246s-0.109-0.523-0.188-0.655c-0.079-0.133-0.683-0.015-0.752-0.068s0.258-0.239 0.362-0.233c0.104 0.007 0.233 0.032 0.233 0.032s0.009-0.248-0.329-0.472c-0.339-0.224-0.402 0.094-0.402 0.094z"></path>
<path fill="#263238" style="fill: var(--color3, #263238)" opacity="0.2" d="M35.529 17.291c0 0-0.011 0.393-0.318 0.412s-0.497-0.491-0.811-0.369c-0.314 0.123-0.344 0.683-0.344 0.683s0.298-0.245 0.459-0.121c0.161 0.124 0.123 0.314 0.037 0.284s-0.554-0.134-0.57 0.218c-0.007 0.1 0.007 0.201 0.041 0.296s0.086 0.182 0.154 0.256c0 0 0.332-0.619 0.574-0.507s-0.2 0.211-0.377 0.44-0.291 0.47-0.134 0.553c0.131 0.082 0.254 0.176 0.367 0.282 0 0-0.042-0.324 0.153-0.576s0.354-0.128 0.178 0.101c-0.176 0.229-0.089 0.588-0.089 0.588s0.52 0.036 0.892-0.116c0.372-0.152 0.375-0.296 0.255-0.425s-0.534-0.302-0.411-0.462c0.123-0.16 0.442 0.705 0.624 0.517s0.236-0.402 0.134-0.553l-0.102-0.152c0 0-0.414-0.174-0.534-0.302s0.053-0.069 0.249 0.009c0.196 0.078 0.62 0.332 0.651 0.246s-0.109-0.523-0.188-0.655c-0.079-0.133-0.683-0.015-0.752-0.068s0.258-0.239 0.362-0.233c0.104 0.007 0.233 0.032 0.233 0.032s0.009-0.248-0.329-0.472c-0.339-0.224-0.402 0.094-0.402 0.094z"></path>
<path fill="#fff" style="fill: var(--color1, #fff)" d="M34.16 19.634c0 0-0.050 0.452-0.407 0.446s-0.527-0.615-0.901-0.503c-0.373 0.112-0.463 0.755-0.463 0.755s0.367-0.254 0.541-0.096c0.174 0.157 0.112 0.374 0.015 0.331s-0.626-0.207-0.678 0.198c-0.017 0.115-0.010 0.233 0.020 0.345s0.083 0.218 0.155 0.31c0 0 0.442-0.684 0.71-0.531s-0.25 0.225-0.476 0.473c-0.226 0.247-0.379 0.515-0.208 0.626 0.144 0.106 0.277 0.227 0.397 0.36 0 0-0.018-0.378 0.233-0.65s0.421-0.116 0.196 0.133c-0.225 0.249-0.158 0.671-0.158 0.671s0.597 0.091 1.041-0.049c0.444-0.139 0.46-0.306 0.333-0.465s-0.588-0.399-0.43-0.572c0.158-0.173 0.443 0.855 0.671 0.655s0.311-0.441 0.207-0.626l-0.109-0.185c0 0-0.461-0.239-0.588-0.399s0.068-0.074 0.286 0.034c0.219 0.108 0.685 0.442 0.727 0.345s-0.077-0.612-0.153-0.774c-0.076-0.162-0.787-0.081-0.861-0.149s0.321-0.252 0.44-0.233c0.089 0.015 0.177 0.034 0.264 0.058 0 0 0.034-0.286-0.336-0.576s-0.471 0.069-0.471 0.069z"></path>
<path fill="#263238" style="fill: var(--color3, #263238)" opacity="0.3" d="M34.16 19.634c0 0-0.050 0.452-0.407 0.446s-0.527-0.615-0.901-0.503c-0.373 0.112-0.463 0.755-0.463 0.755s0.367-0.254 0.541-0.096c0.174 0.157 0.112 0.374 0.015 0.331s-0.626-0.207-0.678 0.198c-0.017 0.115-0.010 0.233 0.020 0.345s0.083 0.218 0.155 0.31c0 0 0.442-0.684 0.71-0.531s-0.25 0.225-0.476 0.473c-0.226 0.247-0.379 0.515-0.208 0.626 0.144 0.106 0.277 0.227 0.397 0.36 0 0-0.018-0.378 0.233-0.65s0.421-0.116 0.196 0.133c-0.225 0.249-0.158 0.671-0.158 0.671s0.597 0.091 1.041-0.049c0.444-0.139 0.46-0.306 0.333-0.465s-0.588-0.399-0.43-0.572c0.158-0.173 0.443 0.855 0.671 0.655s0.311-0.441 0.207-0.626l-0.109-0.185c0 0-0.461-0.239-0.588-0.399s0.068-0.074 0.286 0.034c0.219 0.108 0.685 0.442 0.727 0.345s-0.077-0.612-0.153-0.774c-0.076-0.162-0.787-0.081-0.861-0.149s0.321-0.252 0.44-0.233c0.089 0.015 0.177 0.034 0.264 0.058 0 0 0.034-0.286-0.336-0.576s-0.471 0.069-0.471 0.069z"></path>
<path fill="#fff" style="fill: var(--color1, #fff)" d="M34.774 22.338c-0.181-0.203-0.566-0.203-0.791 0.317s-0.023 0.429-0.023 0.429 0.429-0.135 0.698-0.226c0.269-0.091 0.633-0.316 0.656-0.18s-0.181 0.271-0.43 0.316-0.904 0.225-0.837 0.361c0.067 0.136 0.226 0.541 0.226 0.541 0.193-0.164 0.397-0.314 0.61-0.451 0.294-0.181 0.475-0.113 0.317 0.090s-0.611 0.429-0.52 0.7c0.091 0.271 0.635 0.61 0.635 0.61s0.068-0.565 0.226-0.745c0.159-0.181 0.158 0.023 0.113 0.339-0.023 0.135-0.038 0.27-0.045 0.407l0.633 0.225c0.103-0.157 0.217-0.308 0.339-0.451l0.116-0.113c0 0-0.497-0.429-0.52-0.697s0.339 0 0.452 0.045c0.113 0.045 0.294 0.361 0.294 0.361s0.113-0.519 0.136-0.697l0.023-0.181c0 0-0.475-0.181-0.656-0.181s-0.271 0.135-0.271-0.045c0-0.181 0.181-0.293 0.385-0.271 0.184 0.030 0.366 0.076 0.543 0.135 0 0 0.136-0.113 0.090-0.452s-0.158-0.339-0.429-0.248c-0.271 0.091-0.453 0.291-0.656 0.291s-0.090-0.248 0.045-0.316c0.136-0.068 0.475-0.203 0.543-0.226s-0.362-0.339-0.588-0.384-0.519 0.116-0.497 0.339c0.043 0.472-0.635 0.565-0.816 0.358z"></path>
<path fill="#fff" style="fill: var(--color1, #fff)" d="M36.945 20.394c-0.246-0.145-0.518-0.149-0.652-0.302s0.129-0.232 0.269-0.174 0.465 0.225 0.527 0.261c0.061 0.037 0.019-0.495-0.095-0.697s-0.427-0.317-0.582-0.153c-0.329 0.345-0.842-0.107-0.807-0.377s-0.217-0.559-0.756-0.389c-0.539 0.17-0.339 0.264-0.339 0.264s0.384 0.235 0.631 0.381c0.247 0.146 0.654 0.27 0.566 0.376s-0.324 0.041-0.521-0.116c-0.197-0.157-0.763-0.534-0.821-0.394s-0.262 0.523-0.262 0.523c0.251 0.038 0.498 0.093 0.742 0.164 0.329 0.103 0.397 0.284 0.14 0.297s-0.725-0.179-0.873 0.067c-0.148 0.246-0.046 0.877-0.046 0.877s0.471-0.319 0.712-0.318c0.24 0.001 0.087 0.134-0.182 0.307-0.116 0.071-0.229 0.149-0.337 0.232l0.244 0.626c0.187-0.025 0.375-0.039 0.564-0.040l0.16 0.011c0 0 0-0.657 0.188-0.851s0.222 0.256 0.262 0.371c0.040 0.115-0.080 0.458-0.080 0.458s0.465-0.255 0.618-0.356l0.152-0.102c0 0-0.175-0.476-0.291-0.613s-0.28-0.116-0.144-0.232 0.341-0.058 0.457 0.112c0.097 0.159 0.182 0.326 0.253 0.498 0 0 0.175 0.029 0.401-0.228s0.15-0.339-0.097-0.483zM34.806 21.117c-0.181-0.090 0.248-0.271 0.248-0.271 0.159-0.024-0.067 0.361-0.248 0.27l-0.001 0.001zM35.11 20.274c-0.077-0.038 0.154-0.116 0.154-0.116 0.335 0.062-0.076 0.154-0.154 0.115l-0.001 0.001z"></path>
<path fill="#fff" style="fill: var(--color1, #fff)" d="M33.432 23.523c-0.198-0.116-0.417-0.12-0.524-0.243s0.103-0.186 0.216-0.139c0.113 0.047 0.374 0.181 0.424 0.21s0.015-0.398-0.077-0.559c-0.092-0.161-0.343-0.255-0.465-0.123-0.265 0.277-0.678-0.087-0.649-0.304s-0.175-0.45-0.61-0.313c-0.436 0.137-0.273 0.213-0.273 0.213s0.309 0.189 0.507 0.306c0.198 0.117 0.524 0.217 0.456 0.303s-0.26 0.033-0.419-0.094c-0.159-0.127-0.614-0.43-0.661-0.317s-0.21 0.424-0.21 0.424c0.202 0.031 0.401 0.075 0.597 0.132 0.265 0.083 0.319 0.229 0.112 0.24s-0.582-0.144-0.698 0.053c-0.116 0.198-0.037 0.706-0.037 0.706s0.379-0.256 0.573-0.256c0.193 0.001 0.070 0.108-0.146 0.247-0.094 0.057-0.185 0.119-0.272 0.187l0.197 0.504c0.15-0.020 0.302-0.031 0.454-0.033l0.129 0.009c0 0 0-0.529 0.152-0.685s0.179 0.206 0.211 0.298c0.032 0.093-0.065 0.369-0.065 0.369s0.376-0.205 0.497-0.287l0.122-0.081c0 0-0.141-0.384-0.236-0.493s-0.226-0.093-0.116-0.189c0.109-0.095 0.274-0.045 0.368 0.091 0.079 0.128 0.147 0.262 0.204 0.401 0 0 0.14 0.023 0.322-0.184s0.116-0.275-0.081-0.392zM31.71 24.104c-0.145-0.073 0.2-0.218 0.2-0.218 0.127-0.018-0.055 0.291-0.201 0.219l0.001-0.001zM31.955 23.425c-0.062-0.031 0.124-0.093 0.124-0.093 0.27 0.052-0.062 0.125-0.124 0.094v-0.001z"></path>
<path fill="#fff" style="fill: var(--color1, #fff)" d="M32.624 19.793c0 0-0.249 0.181-0.407 0s0.068-0.542-0.159-0.677-0.588 0.113-0.588 0.113c0 0 0.294 0.068 0.294 0.226s-0.136 0.225-0.158 0.158c-0.023-0.067-0.181-0.407-0.407-0.249-0.065 0.044-0.121 0.101-0.164 0.167s-0.072 0.14-0.085 0.217c0 0 0.542-0.091 0.588 0.113s-0.226-0.023-0.452-0.023c-0.226 0-0.43 0.045-0.407 0.181 0.012 0.12 0.012 0.241 0 0.361 0.117-0.11 0.27-0.174 0.43-0.181 0.248 0 0.248 0.158 0.023 0.158s-0.407 0.226-0.407 0.226 0.226 0.339 0.497 0.497c0.271 0.158 0.362 0.091 0.384-0.045s-0.068-0.474 0.090-0.474c0.158 0-0.226 0.61-0.023 0.632s0.362-0.045 0.407-0.181l0.045-0.135c0 0-0.091-0.339-0.068-0.474s0.068 0 0.113 0.158c0.045 0.158 0.091 0.542 0.158 0.519s0.272-0.316 0.317-0.429c0.045-0.113-0.317-0.429-0.317-0.497s0.272 0.045 0.317 0.113c0.033 0.051 0.063 0.104 0.090 0.158 0 0 0.158-0.113 0.136-0.429s-0.248-0.203-0.248-0.203z"></path>
<path fill="#fff" style="fill: var(--color1, #fff)" d="M18.967 3.073c-0.143-0.11-0.621-0.091-0.713 0.138s0.201 0.601 0.48 0.575c0.11-0.010 0.158-0.018 0.201-0.080l-0.393-0.383 0.425 0.342c0.012-0.022 0.022-0.046 0.029-0.070 0.005-0.017 0.009-0.035 0.013-0.055 0.030-0.137 0.092-0.364-0.043-0.467z"></path>
<path fill="#fff" style="fill: var(--color1, #fff)" d="M19.893 2.808v0.008c-0.038 0.17-0.233 0.267-0.397 0.252-0.023-0.002-0.045-0.006-0.067-0.012-0.039 0.061-0.062 0.13-0.070 0.201s0.002 0.144 0.028 0.211c0.007 0.019 0.016 0.038 0.027 0.055 0.048-0.039 0.565-0.48 0.565-0.48l-0.537 0.516c0.162 0.174 0.541 0.149 0.673-0.171s-0.036-0.535-0.222-0.58z"></path>
<path fill="#fff" style="fill: var(--color1, #fff)" d="M19.63 2.213c-0.278-0.058-0.527 0.065-0.524 0.355 0.002 0.064 0.016 0.127 0.043 0.185s0.065 0.11 0.113 0.153l0.287-0.39-0.241 0.426c0.054 0.037 0.116 0.059 0.181 0.065 0.164 0.014 0.359-0.083 0.397-0.253 0.040-0.19 0.021-0.479-0.257-0.54z"></path>
<path fill="#fff" style="fill: var(--color1, #fff)" d="M19.305 1.204c0 0-0.029 0.009-0.207 0.095-0.104 0.057-0.181 0.154-0.215 0.268s-0.020 0.237 0.037 0.341c0.049 0.098 0.135 0.172 0.238 0.208l0.072-0.691-0.030 0.7c0.014 0.001 0.027 0.001 0.041 0 0.116-0.012 0.298-0.15 0.316-0.433s-0.251-0.489-0.251-0.489z"></path>
<path fill="#fff" style="fill: var(--color1, #fff)" d="M18.492 1.833l0.537 0.429c0.005-0.019 0.007-0.039 0.005-0.058-0.025-0.245-0.27-0.388-0.432-0.439s-0.274 0.040-0.17 0.275 0.377 0.349 0.499 0.313c0.029-0.007 0.055-0.023 0.075-0.045l-0.514-0.475z"></path>
<path fill="#fff" style="fill: var(--color1, #fff)" d="M18.862 2.382c-0.082-0.006-0.162-0.030-0.234-0.072s-0.133-0.098-0.179-0.167c-0.057-0.005-0.114 0.012-0.159 0.048s-0.073 0.088-0.080 0.145c-0.055 0.256 0.13 0.523 0.397 0.49 0.084-0.004 0.163-0.038 0.225-0.096l-0.477-0.435 0.511 0.389c0.010-0.018 0.016-0.038 0.019-0.058 0.017-0.082 0.008-0.167-0.023-0.244z"></path>
<path fill="#fff" style="fill: var(--color1, #fff)" d="M18.859 3.804c-0.043 0.019-0.090 0.030-0.137 0.033-0.175 0.016-0.352-0.12-0.441-0.281-0.052 0.003-0.101 0.024-0.14 0.059s-0.065 0.081-0.074 0.133c-0.053 0.299 0.225 0.694 0.505 0.631 0.073-0.014 0.14-0.048 0.195-0.099l-0.612-0.588 0.648 0.55c0.037-0.047 0.061-0.104 0.069-0.163 0.031-0.090 0.026-0.188-0.013-0.274z"></path>
<path fill="#fff" style="fill: var(--color1, #fff)" d="M20.091 4.416c-0.206-0.238-0.451-0.025-0.451-0.025s-0.15 0.049-0.207 0.262c-0.017 0.065-0.015 0.133 0.008 0.196l0.619-0.36-0.604 0.394c0.058 0.107 0.179 0.174 0.349 0.125 0.271-0.074 0.492-0.352 0.286-0.591z"></path>
<path fill="#fff" style="fill: var(--color1, #fff)" d="M24.383 10.532h0.516l-0.454 0.189 1.141 2.697h-1.203v-2.887z"></path>
<path fill="#fff" style="fill: var(--color1, #fff)" d="M24.383 17.436h0.516l-0.454 0.189 1.141 2.698h-1.203v-2.887z"></path>
<path fill="#263238" style="fill: var(--color3, #263238)" d="M7.319 19.312c0 0-0.349-4.648-0.175-5.171s1.251-0.494 1.455-0.494c0.204 0 4.451 0 5.062 0.29s0.698 7.437 0.698 7.437h-6.749l-0.291-2.063z"></path>
<path fill="#263238" style="fill: var(--color3, #263238)" d="M14.591 18.935c0 0-0.698 0-0.838 0.697s0.41 3.573 0.451 4.387c0.041 0.813 0.184 1.946 0.184 1.946h2.473l0.553-7.030h-2.822z"></path>
<path fill="#636363" style="fill: var(--color6, #636363)" d="M17.414 18.935c0 0-0.698 0-0.873 0.697s0.233 3.573 0.233 4.387c0 0.813 0.087 1.946 0.087 1.946h0.873c0 0 0.087-2.092 0.087-2.382s0.349-3.312 0.175-3.922c-0.175-0.61-0.32-0.668-0.582-0.726z"></path>
<path fill="#fff" style="fill: var(--color1, #fff)" d="M10.039 13.952c0 0-2.313 0.944-2.313 1.046s0.785 2.833 1.076 3.254 0.495 0.886 0.582 1.060c0.087 0.174 0.465 0.61 0.771 0.61s0.669-0.363 1.644-0.509c0.975-0.145 1.847-0.131 2.022-0.261s-0.044-0.479-0.073-0.552-0.145-0.334-0.145-0.334c0 0 0.945 0.784 1.324 0.813s0.655-0.16 0.713-0.407c0.058-0.247-0.16-0.842-0.305-1.162s-0.829-0.828-1.135-1.22-0.698-0.857-0.975-1.177c-0.241-0.281-0.538-0.509-0.873-0.668-0.262-0.116-0.931-0.407-1.353-0.45s-0.96-0.044-0.96-0.044z"></path>
<path fill="#fff" style="fill: var(--color1, #fff)" d="M9.894 13.342l0.073 0.871 1.542 1.511 0.233-1.075 0.102-0.45c0 0-1.004-0.174-1.324-0.392s-0.625-0.465-0.625-0.465z"></path>
<path fill="#263238" style="fill: var(--color3, #263238)" d="M11.843 14.199c0 0-1.004-0.174-1.324-0.392s-0.625-0.465-0.625-0.465l0.073 0.871 0.39 0.382c0.303 0.085 0.605 0.127 0.81 0.048 0.228-0.083 0.446-0.191 0.649-0.323l0.027-0.121z"></path>
<path fill="#263238" style="fill: var(--color3, #263238)" d="M9.433 12.669c0 0-0.272-1.24-0.272-1.453s0.737-1.298 1.745-1.124c1.008 0.174 1.571 0.755 1.61 0.93s-0.116 0.523-0.116 0.523c0.031 0.101 0.050 0.205 0.058 0.31 0 0.116-0.175 0.619-0.175 0.619l-0.058-0.523c0 0-0.485 0.136-0.756 0.136s-0.737-0.174-0.737-0.174c0 0 0.097 0.31 0 0.465s-0.387 0.291-0.387 0.291c0 0-0.039 0.31-0.155 0.31-0.144-0.007-0.286-0.027-0.426-0.058-0.078-0.019-0.33-0.252-0.33-0.252z"></path>
<path fill="#fff" style="fill: var(--color1, #fff)" d="M9.879 12.805c0 0-0.039-0.465-0.427-0.349s-0.136 0.542 0.078 0.755c0.214 0.213 0.271 0.058 0.271 0.058s0.058 0.446 0.349 0.697c0.291 0.252 0.737 0.716 1.203 0.658s0.795-0.639 0.854-1.065c0.058-0.426 0.097-1.433 0.097-1.55-0.014-0.131-0.040-0.261-0.077-0.387 0 0-0.407 0.29-0.776 0.213s-0.756-0.232-0.931-0.232c-0.175 0-0.136 0.252-0.078 0.329s0.214 0.232 0.039 0.329c-0.175 0.097-0.407 0.193-0.407 0.193v0.407l-0.194-0.058z"></path>
<path fill="#263238" style="fill: var(--color3, #263238)" d="M11.331 13.59c0 0-0.233 0-0.361 0.011-0.077 0.013-0.155 0.016-0.233 0.010-0.053-0.010-0.116-0.053-0.010 0.053s0.425 0.232 0.595 0.254 0.287-0.032 0.414-0.116c0.127-0.084 0.233-0.17 0.17-0.191-0.088-0.015-0.176-0.023-0.265-0.021v0.053l-0.309-0.054z"></path>
<path fill="#fff" style="fill: var(--color1, #fff)" d="M12.672 15.783l0.102-0.261c0 0 0.131 0.131 0.48 0.131s0.916 0.247 0.916 0.247l0.044 0.073c0 0 0.102-0.305 0.291-0.363s0.495-0.261 0.538-0.32l0.044-0.058 0.204 0.174-0.902 1.191-1.687-0.654-0.029-0.16z"></path>
<path fill="#fff" style="fill: var(--color1, #fff)" d="M10.81 17.569l0.659-0.271c0 0 0.582-0.619 0.64-0.677s0.64-0.116 0.64-0.116l0.64 0.426c0 0 0.116 0.097 0 0.135s-0.368-0.077-0.368-0.077l-0.252-0.155-0.155 0.078 0.329 0.271c0 0 0.097 0.252 0.097 0.387-0.002 0.087-0.022 0.173-0.058 0.252l-0.194 0.271-0.582-0.291c0 0-0.349 0.252-0.427 0.291s-0.815-0.019-0.815-0.019l-0.155-0.504z"></path>
<path fill="#fff" style="fill: var(--color1, #fff)" d="M8.134 14.722c0 0-0.427 0.058-0.485 0.426s-0.446 3.467-0.329 3.816c0.116 0.349 2.269-0.252 2.346-0.29s1.299-0.407 1.319-0.484c0.020-0.077 0.058-0.717-0.116-0.755s-1.843 0.019-1.843 0.019l-0.233-2.014z"></path>
<path fill="#fff" style="fill: var(--color1, #fff)" d="M15.028 16.364c0 0-0.393 0.407-0.378 0.509s0.218-0.058 0.262-0.102c0.044-0.044 0.247-0.16 0.247-0.276s-0.044-0.247-0.131-0.131z"></path>
<path fill="#fff" style="fill: var(--color1, #fff)" d="M15.072 16.611c0 0 0.116 0.116 0.116 0.218s-0.247 0.436-0.364 0.436c-0.116 0-0.029-0.232 0.029-0.334s0.218-0.32 0.218-0.32z"></path>
<path fill="#fff" style="fill: var(--color1, #fff)" d="M15.188 16.828c0 0 0.145 0.044 0.145 0.174s-0.276 0.349-0.349 0.363-0.058-0.116 0-0.218c0.058-0.102 0.204-0.32 0.204-0.32z"></path>
<path fill="#fff" style="fill: var(--color1, #fff)" d="M15.334 17.003c0.030 0.074 0.040 0.154 0.029 0.232-0.015 0.145-0.233 0.233-0.305 0.233s-0.073-0.102-0.073-0.102c0.123-0.114 0.24-0.236 0.349-0.363z"></path>
<path fill="#fff" style="fill: var(--color1, #fff)" d="M10.759 27.447h-0.276l-0.138-1.83h0.553l-0.138 1.83z"></path>
<path fill="#fff" style="fill: var(--color1, #fff)" d="M8.228 27.447h-0.276l-0.138-1.83h0.553l-0.138 1.83z"></path>
<path fill="#fff" style="fill: var(--color1, #fff)" d="M17.363 27.447h-0.276l-0.138-1.83h0.553l-0.139 1.83z"></path>
<path fill="#fff" style="fill: var(--color1, #fff)" d="M14.832 27.447h-0.276l-0.138-1.83h0.553l-0.139 1.83z"></path>
<path fill="#263238" style="fill: var(--color3, #263238)" d="M16.977 22.115h-6.604v3.835h6.604v-3.835z"></path>
<path fill="#fff" style="fill: var(--color1, #fff)" d="M21.767 21.501c0 0 0.698-0.291 0.854-0.407s0.368 0.135 0.271 0.407c-0.097 0.271-0.349 0.755-0.736 0.988s-0.698 0.426-0.776 0.503c-0.078 0.077-0.058 0.368-0.387 0.485s-0.737-0.116-0.97-0.485-0.388-0.619-0.388-0.619c0 0 0.020-0.271 0.407-0.407s1.047-0.194 1.047-0.194l0.679-0.271z"></path>
<path fill="#fff" style="fill: var(--color1, #fff)" d="M13.821 19.153c0 0 0.46-0.111 0.577-0.053s0.504 0.427 0.504 0.427 2.347 0.038 2.521 0.116c0.175 0.078 1.978 1.453 2.366 1.646s0.717 0.368 0.717 0.368l-0.291 1.278v0.116l0.020 0.194c0 0-1.009-0.31-1.261-0.368s-1.299-0.6-1.396-0.6c-0.097 0-0.892-0.232-0.892-0.232s-0.116-0.077-1.377-0.193c-1.261-0.116-2.676-0.252-3.181-0.271s-1.164-0.058-1.416-0.155c-0.252-0.097-0.698-0.774-0.776-1.181s0.737-0.755 1.086-0.91c0.349-0.155 1.649-0.349 1.882-0.349s0.916 0.17 0.916 0.17z"></path>
<path fill="#fff" style="fill: var(--color1, #fff)" d="M14.262 19.719l-0.388 0.562 0.524-0.349z"></path>
<path fill="#fff" style="fill: var(--color1, #fff)" d="M20.216 21.404c0 0 0.563-0.446 0.679-0.581s0.505-0.872 0.582-1.104c0.077-0.233 0.272-0.349 0.407-0.174s0.233 0.523 0.31 0.678c0.077 0.155-0.038 0.91-0.271 1.162s-0.555 0.863-0.621 0.988c-0.175 0.329-0.446 0.368-0.621 0.387s-0.601-0.445-0.601-0.445l0.136-0.911z"></path>
<path fill="#fff" style="fill: var(--color1, #fff)" d="M11.586 20.107c0 0 0.582-0.116 1.105-0.058s1.59 0.387 2.036 0.503c0.446 0.116 1.241 0.174 1.61 0.31s1.338 0.31 2.075 0.31c0.736 0 1.862 0.097 1.862 0.097s-0.155 1.123-0.116 1.336c0.038 0.172 0.090 0.34 0.155 0.503 0 0-1.493 0.116-1.92 0.174s-2.153-0.213-2.444-0.291-0.717-0.193-0.989-0.193c-0.272 0-0.795 0.116-1.552 0.193s-1.823-0.252-1.958-0.271-0.621-0.194-0.737-0.271c-0.116-0.077-0.795-1.278-0.563-1.782s0.524-0.581 0.524-0.581z"></path>
<path fill="#fff" style="fill: var(--color1, #fff)" d="M15.153 22.061c0.374 0.074 0.77 0.301 1.306 0.511 0.715 0.279 2.146 0.254 2.331 0.279s0.653 0 0.653 0z"></path>
<path fill="#fff" style="fill: var(--color1, #fff)" d="M12.269 22.323l0.214 0.031c0.621 0.093 1.804-0.248 2.299-0.31z"></path>
<path fill="#fff" style="fill: var(--color1, #fff)" d="M11.643 22.261c0 0 0.112 0 0.403 0.034l-0.403-0.034z"></path>
<path fill="#263238" style="fill: var(--color3, #263238)" d="M7.871 18.935c0 0-0.698 0-0.838 0.697s0.407 3.573 0.451 4.387c0.044 0.813 0.184 1.946 0.184 1.946h2.473l0.553-7.030h-2.822z"></path>
<path fill="#636363" style="fill: var(--color6, #636363)" d="M10.694 18.935c0 0-0.698 0-0.873 0.697s0.233 3.573 0.233 4.387c0 0.813 0.087 1.946 0.087 1.946h0.873c0 0 0.087-2.092 0.087-2.382s0.349-3.312 0.175-3.922c-0.175-0.61-0.32-0.668-0.582-0.726z"></path>
<path fill="#fff" style="fill: var(--color1, #fff)" d="M16.374 27.447h-0.276l-0.138-1.83h0.553l-0.138 1.83z"></path>
<path fill="#fff" style="fill: var(--color1, #fff)" d="M18.73 27.447h-0.276l-0.138-1.83h0.553l-0.138 1.83z"></path>
<path fill="#fff" style="fill: var(--color1, #fff)" d="M19.835 27.447h-0.276l-0.138-1.83h0.553l-0.139 1.83z"></path>
<path fill="#fff" style="fill: var(--color1, #fff)" d="M22.163 27.447h-0.276l-0.138-1.83h0.553l-0.139 1.83z"></path>
<path fill="#263238" style="fill: var(--color3, #263238)" d="M16.032 23.234h6.077c0.112 0 0.219 0.044 0.298 0.123s0.123 0.186 0.123 0.298v2.978h-6.924v-2.978c0-0.055 0.011-0.111 0.032-0.162s0.053-0.098 0.092-0.137c0.039-0.039 0.086-0.070 0.138-0.091s0.107-0.032 0.162-0.031z"></path>
<path fill="#636363" style="fill: var(--color6, #636363)" d="M22.112 23.234h-2.211c-0.112 0-0.219 0.044-0.298 0.123s-0.123 0.186-0.123 0.298v2.978h3.055v-2.978c-0-0.112-0.045-0.219-0.124-0.298s-0.186-0.123-0.298-0.123z"></path>
</symbol>
</defs>
</svg>
