<!-- Generated by IcoMoon.io -->
<svg version="1.1" xmlns="http://www.w3.org/2000/svg" width="1024" height="1024" viewBox="0 0 1024 1024">
<title>light-bulb</title>
<g id="icomoon-ignore">
</g>
<path fill="#000" d="M595.868 638.039c39.534-10.138 73.874-32.435 99.312-64.482 31.189-39.293 45.016-88.358 38.933-138.16-6.081-49.792-31.339-94.123-71.087-124.749-38.51-29.689-86.518-42.887-135.181-37.164-48.661 5.724-92.301 29.702-122.879 67.513-26.213 32.415-40.511 71.515-41.345 113.072-1.357 67.463-24.604 132.965-65.463 184.441l-44.708 56.323c-19.831 24.984-15.64 61.443 9.344 81.274l42.143 33.452c24.984 19.831 61.444 15.639 81.274-9.344l44.705-56.32c41.313-52.042 98.227-88.747 164.951-105.856zM387.457 454.548c0.728-36.217 13.193-70.298 36.048-98.56 54.905-67.895 155.823-79.764 224.966-26.458 34.665 26.765 56.676 65.351 61.976 108.757 5.303 43.418-6.75 86.194-33.94 120.448-22.177 27.937-52.109 47.374-86.562 56.21-70.303 18.030-130.745 56.191-175.076 110.485l-95.279-75.63c42.371-54.982 66.439-124.134 67.867-195.254zM277.147 703.327l6-7.559 86.74 86.67-2.347 2.955c-1.234 1.556-2.6 2.944-4.033 4.223l-86.36-86.289zM298.066 676.974l6.729-8.476 95.415 75.739-15.404 19.408-86.74-86.67zM277.616 757.434c-10.030-7.962-14.349-20.48-12.372-32.299l73.068 73.010c-6.552-0.491-13.028-2.876-18.55-7.259l-42.146-33.452z"></path>
<path fill="#000" d="M446.067 398.707c3.15-5.464 6.787-10.761 10.812-15.735 4.14-5.119 3.346-12.624-1.772-16.764-5.086-4.11-12.625-3.346-16.765 1.772-4.807 5.945-9.158 12.277-12.931 18.822-2.987 5.181-1.644 11.671 2.904 15.282 0.458 0.364 0.95 0.698 1.472 1 5.703 3.285 12.992 1.327 16.28-4.376z"></path>
<path fill="#000" d="M388.442 584.141c0.966 0.767 2.069 1.395 3.291 1.846 6.177 2.278 13.030-0.883 15.307-7.060 14.63-39.68 22.48-81.239 23.329-123.517 0.141-6.989 0.885-13.962 2.213-20.726 1.269-6.46-2.941-12.725-9.402-13.993s-12.725 2.943-13.993 9.402c-1.591 8.115-2.486 16.471-2.654 24.838-0.795 39.622-8.151 78.565-21.86 115.749-1.828 4.955-0.155 10.347 3.769 13.461z"></path>
<path fill="#000" d="M622.269 567.791c-3.115-5.8-10.344-7.974-16.142-4.857-8.411 4.521-17.439 8.034-26.834 10.443-6.377 1.634-10.222 8.131-8.586 14.508 0.671 2.618 2.162 4.809 4.129 6.369 2.822 2.24 6.62 3.18 10.381 2.216 11.258-2.887 22.091-7.105 32.196-12.537 5.8-3.115 7.976-10.344 4.857-16.142z"></path>
<path fill="#000" d="M623.639 364.591c51.479 40.862 60.114 115.986 19.253 167.465-2.322 2.927-4.799 5.769-7.357 8.448-4.547 4.762-4.373 12.305 0.387 16.853 0.269 0.256 0.546 0.499 0.832 0.725 4.772 3.787 11.73 3.381 16.021-1.112 3.058-3.203 6.017-6.598 8.791-10.092 49.035-61.776 38.672-151.926-23.104-200.961-5.156-4.093-12.655-3.231-16.747 1.926s-3.231 12.655 1.924 16.748z"></path>
<path fill="#000" d="M677.928 296.199c5.157 4.093 12.655 3.231 16.748-1.926l41.503-52.285c4.093-5.156 3.23-12.655-1.926-16.747s-12.655-3.231-16.748 1.924l-41.502 52.285c-4.093 5.157-3.231 12.655 1.924 16.748z"></path>
<path fill="#000" d="M568.835 239.671c-0.647 4.369 1.161 8.535 4.388 11.095 1.583 1.257 3.509 2.129 5.653 2.448 6.511 0.966 12.575-3.529 13.542-10.041l9.799-66.005c0.966-6.514-3.529-12.575-10.041-13.542s-12.575 3.529-13.542 10.041l-9.799 66.005z"></path>
<path fill="#000" d="M664.896 722.372l-24.523-62.059c-2.419-6.126-9.345-9.126-15.467-6.706-6.123 2.419-9.126 9.344-6.706 15.468l24.523 62.059c0.796 2.017 2.081 3.694 3.665 4.951 3.227 2.561 7.696 3.378 11.802 1.755 6.123-2.419 9.125-9.345 6.706-15.468z"></path>
<path fill="#000" d="M431.589 196.783l24.523 62.060c0.796 2.015 2.081 3.694 3.665 4.951 3.227 2.561 7.696 3.376 11.802 1.754 6.123-2.418 9.125-9.343 6.706-15.467l-24.523-62.060c-2.418-6.123-9.344-9.125-15.467-6.704-6.123 2.419-9.125 9.343-6.706 15.467z"></path>
<path fill="#000" d="M780.663 628.84l-52.285-41.503c-5.157-4.093-12.655-3.23-16.748 1.926s-3.23 12.655 1.926 16.748l52.285 41.502c5.156 4.093 12.655 3.231 16.748-1.926s3.231-12.654-1.926-16.747z"></path>
<path fill="#000" d="M384.866 329.892c4.093-5.157 3.231-12.655-1.924-16.748l-52.285-41.502c-5.157-4.093-12.655-3.231-16.748 1.926s-3.231 12.655 1.926 16.747l52.285 41.503c5.157 4.093 12.655 3.23 16.747-1.926z"></path>
<path fill="#000" d="M758.989 501.299c1.583 1.257 3.509 2.129 5.653 2.446l66.005 9.799c6.512 0.967 12.575-3.529 13.542-10.039 0.966-6.512-3.53-12.577-10.041-13.542l-66.005-9.799c-6.512-0.967-12.575 3.529-13.542 10.039-0.649 4.369 1.162 8.536 4.388 11.096z"></path>
<path fill="#000" d="M331.843 415.411l-66.005-9.801c-6.511-0.966-12.575 3.529-13.541 10.041-0.649 4.368 1.159 8.535 4.386 11.096 1.583 1.257 3.51 2.128 5.653 2.446l66.005 9.799c6.512 0.966 12.577-3.529 13.542-10.041 0.969-6.511-3.531-12.577-10.041-13.541z"></path>
<path fill="#000" d="M742.271 382.919c0.796 2.017 2.081 3.694 3.666 4.951 3.227 2.561 7.694 3.378 11.802 1.755l62.059-24.523c6.123-2.419 9.125-9.344 6.706-15.467-2.418-6.121-9.344-9.125-15.467-6.706l-62.060 24.523c-6.123 2.419-9.124 9.344-6.706 15.467z"></path>
</svg>
